<?xml version="1.0" encoding="UTF-8"?><svg viewBox="0 0 32 32" width="32px" height="32px" xmlns="http://www.w3.org/2000/svg" version="1.2" baseProfile="tiny"><g fill="#ebdbb2"><rect width="2" height="1" x="18"/><rect width="4" height="1" x="26"/><rect height="1" x="17" y="1" width="1"/><rect y="1" width="1" height="1" x="20"/><rect x="25" y="1" width="1" height="1"/><rect x="30" y="1" width="1" height="1"/><rect y="2" width="2" height="1" x="13"/><rect y="2" width="1" height="2" x="16"/><rect width="1" height="1" x="18" y="2"/><rect x="21" y="2" width="1" height="2"/><rect height="1" x="24" y="2" width="1"/><rect width="4" height="1" x="26" y="2"/><rect x="31" y="2" width="1" height="4"/><rect x="12" y="3" width="1" height="1"/><rect x="15" y="3" width="2" height="1"/><rect y="3" width="1" height="6" x="19"/><rect y="3" width="1" height="1" x="23"/><rect y="3" width="1" height="5" x="25"/><rect y="3" width="1" height="3" x="27"/><rect y="3" width="1" height="1" x="29"/><rect height="1" x="8" y="4" width="2"/><rect y="4" width="1" height="2" x="11"/><rect height="1" x="13" y="4" width="2"/><rect height="5" x="17" y="4" width="3"/><rect x="22" y="4" width="1" height="1"/><rect height="1" x="24" y="4" width="5"/><rect x="7" y="5" width="1" height="1"/><rect x="10" y="5" width="2" height="1"/><rect x="16" y="5" width="4" height="4"/><rect x="23" y="5" width="1" height="3"/><rect x="29" y="5" width="1" height="1"/><rect height="1" x="3" y="6" width="2"/><rect y="6" width="1" height="3" x="6"/><rect x="8" y="6" width="2" height="1"/><rect x="13" y="6" width="2" height="11"/><rect x="20" y="6" width="2" height="1"/><rect x="24" y="6" width="3" height="1"/><rect x="28" y="6" width="1" height="1"/><rect x="30" y="6" width="1" height="1"/><rect height="1" x="2" y="7" width="1"/><rect height="1" x="5" y="7" width="2"/><rect x="8" y="7" width="1" height="1"/><rect y="7" width="4" height="10" x="11"/><rect x="20" y="7" width="1" height="1"/><rect x="27" y="7" width="1" height="1"/><rect height="1" x="29" y="7" width="1"/><rect width="1" height="2" x="1" y="8"/><rect height="2" x="3" y="8" width="2"/><rect x="9" y="8" width="1" height="9"/><rect x="15" y="8" width="5" height="1"/><rect y="8" width="1" height="1" x="21"/><rect x="26" y="8" width="1" height="1"/><rect height="1" x="28" y="8" width="1"/><rect x="7" y="9" width="3" height="8"/><rect y="9" width="4" height="1" x="15"/><rect y="9" width="1" height="1" x="20"/><rect x="22" y="9" width="1" height="1"/><rect width="2" height="1" x="24" y="9"/><rect y="10" width="1" height="1" x="2"/><rect height="1" x="6" y="10" width="11"/><rect height="1" x="19" y="10" width="1"/><rect y="10" width="1" height="1" x="21"/><rect height="13" x="23" y="10" width="1"/><rect y="10" width="1" height="2" x="25"/><rect height="1" x="1" y="11" width="1"/><rect x="3" y="11" width="2" height="1"/><rect y="11" width="10" height="1" x="6"/><rect height="2" x="17" y="11" width="2"/><rect x="20" y="11" width="1" height="1"/><rect x="22" y="11" width="2" height="12"/><rect y="12" width="1" height="2"/><rect x="2" y="12" width="1" height="2"/><rect x="4" y="12" width="11" height="2"/><rect x="16" y="12" width="4" height="1"/><rect y="12" width="4" height="3" x="21"/><rect width="1" height="2" x="26" y="12"/><rect x="16" y="13" width="1" height="1"/><rect x="18" y="13" width="2" height="1"/><rect x="1" y="14" width="1" height="2"/><rect x="3" y="14" width="1" height="2"/><rect x="5" y="14" width="10" height="2"/><rect y="14" width="2" height="1" x="17"/><rect y="14" width="6" height="1" x="20"/><rect x="27" y="14" width="1" height="2"/><rect x="19" y="15" width="2" height="1"/><rect width="2" height="7" x="24" y="15"/><rect x="2" y="16" width="1" height="2"/><rect y="16" width="1" height="2" x="4"/><rect y="16" width="14" height="1" x="6"/><rect x="26" y="16" width="1" height="6"/><rect x="28" y="16" width="1" height="2"/><rect width="3" height="1" x="6" y="17"/><rect x="10" y="17" width="4" height="1"/><rect width="3" height="1" x="15" y="17"/><rect x="21" y="17" width="6" height="1"/><rect y="18" width="1" height="2" x="3"/><rect x="5" y="18" width="1" height="2"/><rect width="2" height="2" x="7" y="18"/><rect width="2" height="1" x="10" y="18"/><rect x="14" y="18" width="3" height="1"/><rect width="1" height="1" x="19" y="18"/><rect y="18" width="1" height="3" x="27"/><rect x="29" y="18" width="1" height="1"/><rect height="5" x="9" y="19" width="1"/><rect y="19" width="4" height="1" x="12"/><rect y="19" width="1" height="1" x="17"/><rect y="19" width="1" height="1" x="20"/><rect x="28" y="19" width="1" height="2"/><rect y="19" width="1" height="4" x="30"/><rect height="2" x="4" y="20" width="1"/><rect width="1" height="2" x="6" y="20"/><rect width="4" height="1" x="8" y="20"/><rect x="14" y="20" width="1" height="1"/><rect height="1" x="8" y="21" width="3"/><rect x="18" y="21" width="1" height="5"/><rect width="1" height="4" x="20" y="21"/><rect y="22" width="1" height="2" x="5"/><rect y="22" width="1" height="2" x="7"/><rect width="5" height="1" x="10" y="22"/><rect x="16" y="22" width="1" height="2"/><rect width="2" height="3" x="19" y="22"/><rect width="1" height="1" x="24" y="22"/><rect y="22" width="2" height="1" x="27"/><rect width="4" height="3" x="10" y="23"/><rect y="23" width="2" height="1" x="15"/><rect width="2" height="1" x="21" y="23"/><rect height="1" x="25" y="23" width="2"/><rect y="23" width="1" height="1" x="29"/><rect x="6" y="24" width="1" height="2"/><rect x="8" y="24" width="1" height="2"/><rect x="15" y="24" width="1" height="3"/><rect x="17" y="24" width="4" height="1"/><rect x="23" y="24" width="2" height="1"/><rect width="2" height="1" x="27" y="24"/><rect width="2" height="2" x="14" y="25"/><rect height="1" x="17" y="25" width="2"/><rect x="21" y="25" width="2" height="1"/><rect width="2" height="1" x="25" y="25"/><rect x="7" y="26" width="1" height="2"/><rect x="9" y="26" width="1" height="2"/><rect x="11" y="26" width="6" height="1"/><rect height="1" x="19" y="26" width="2"/><rect y="26" width="2" height="1" x="23"/><rect y="27" width="4" height="1" x="11"/><rect x="17" y="27" width="2" height="1"/><rect y="27" width="2" height="1" x="21"/><rect y="28" width="1" height="2" x="8"/><rect x="10" y="28" width="1" height="2"/><rect width="1" height="1" x="12" y="28"/><rect height="1" x="15" y="28" width="2"/><rect x="19" y="28" width="2" height="1"/><rect x="11" y="29" width="1" height="1"/><rect y="29" width="2" height="1" x="13"/><rect width="2" height="1" x="17" y="29"/><rect height="1" x="9" y="30" width="1"/><rect width="2" height="1" x="15" y="30"/><rect x="10" y="31" width="5" height="1"/></g></svg>