<?xml version="1.0" encoding="UTF-8"?><svg xmlns="http://www.w3.org/2000/svg" version="1.2" baseProfile="tiny" viewBox="0 0 32 32" width="32px" height="32px"><g fill="#ebdbb2"><rect width="4" height="1" x="23"/><rect x="19" y="1" width="4" height="1"/><rect x="27" y="1" width="1" height="1"/><rect width="5" height="1" x="14" y="2"/><rect y="2" width="4" height="2" x="23"/><rect y="2" width="1" height="1" x="28"/><rect height="1" x="9" y="3" width="5"/><rect height="1" x="19" y="3" width="9"/><rect height="1" x="29" y="3" width="1"/><rect height="1" x="3" y="4" width="6"/><rect x="14" y="4" width="9" height="1"/><rect x="26" y="4" width="3" height="2"/><rect width="1" height="7" x="30" y="4"/><rect height="1" x="2" y="5" width="1"/><rect y="5" width="6" height="1" x="9"/><rect height="7" x="16" y="5" width="1"/><rect height="3" x="18" y="5" width="2"/><rect y="5" width="2" height="1" x="21"/><rect width="5" height="1" x="24" y="5"/><rect y="6" width="1" height="1" x="1"/><rect width="2" height="2" x="3" y="6"/><rect x="6" y="6" width="7" height="1"/><rect y="6" width="2" height="2" x="15"/><rect width="1" height="3" x="20" y="6"/><rect x="22" y="6" width="2" height="8"/><rect height="5" x="27" y="6" width="2"/><rect y="7" width="1" height="1"/><rect x="2" y="7" width="4" height="1"/><rect x="7" y="7" width="2" height="7"/><rect height="1" x="11" y="7" width="2"/><rect x="14" y="7" width="3" height="1"/><rect x="24" y="7" width="2" height="1"/><rect x="1" y="8" width="1" height="1"/><rect y="8" width="1" height="11" x="10"/><rect height="11" x="12" y="8" width="1"/><rect x="18" y="8" width="1" height="1"/><rect height="1" x="24" y="8" width="1"/><rect height="1" x="2" y="9" width="4"/><rect y="9" width="3" height="1" x="14"/><rect x="19" y="9" width="1" height="9"/><rect width="4" height="2" x="25" y="9"/><rect width="1" height="4" x="5" y="10"/><rect x="14" y="10" width="1" height="1"/><rect x="17" y="10" width="12" height="1"/><rect height="1" x="15" y="11" width="13"/><rect height="6" x="29" y="11" width="1"/><rect height="1" x="11" y="12" width="5"/><rect x="20" y="12" width="8" height="1"/><rect height="1" x="9" y="13" width="2"/><rect height="1" x="15" y="13" width="10"/><rect width="1" height="3" x="27" y="13"/><rect height="6" x="4" y="14" width="1"/><rect x="6" y="14" width="1" height="9"/><rect x="11" y="14" width="10" height="1"/><rect x="22" y="14" width="1" height="3"/><rect x="25" y="14" width="3" height="2"/><rect x="7" y="15" width="8" height="1"/><rect width="1" height="3" x="16" y="15"/><rect width="10" height="1" x="18" y="15"/><rect width="4" height="1" x="7" y="16"/><rect x="15" y="16" width="10" height="1"/><rect width="1" height="10" x="26" y="16"/><rect width="9" height="1" x="11" y="17"/><rect height="3" x="21" y="17" width="1"/><rect y="17" width="2" height="2" x="25"/><rect width="1" height="7" x="28" y="17"/><rect x="7" y="18" width="9" height="1"/><rect height="3" x="17" y="18" width="1"/><rect x="20" y="18" width="7" height="1"/><rect x="7" y="19" width="3" height="1"/><rect x="13" y="19" width="1" height="3"/><rect width="10" height="1" x="15" y="19"/><rect width="1" height="8" x="3" y="20"/><rect y="20" width="2" height="3" x="5"/><rect y="20" width="1" height="6" x="8"/><rect width="10" height="1" x="10" y="20"/><rect height="3" x="23" y="20" width="1"/><rect width="2" height="2" x="25" y="20"/><rect y="21" width="8" height="1" x="7"/><rect width="1" height="7" x="18" y="21"/><rect y="21" width="7" height="1" x="20"/><rect x="7" y="22" width="3" height="1"/><rect height="3" x="11" y="22" width="1"/><rect x="15" y="22" width="10" height="1"/><rect height="5" x="5" y="23" width="1"/><rect y="23" width="10" height="1" x="10"/><rect x="21" y="23" width="2" height="4"/><rect height="3" x="25" y="23" width="2"/><rect x="6" y="24" width="9" height="1"/><rect x="19" y="24" width="9" height="2"/><rect height="1" x="29" y="24" width="1"/><rect width="5" height="1" x="6" y="25"/><rect x="14" y="25" width="15" height="1"/><rect width="1" height="1" x="30" y="25"/><rect height="4" x="7" y="26" width="1"/><rect x="10" y="26" width="15" height="1"/><rect width="1" height="1" x="29" y="26"/><rect y="27" width="15" height="1" x="6"/><rect height="1" x="25" y="27" width="4"/><rect width="1" height="1" x="4" y="28"/><rect width="10" height="1" x="6" y="28"/><rect x="21" y="28" width="4" height="1"/><rect height="1" x="5" y="29" width="1"/><rect width="3" height="1" x="8" y="29"/><rect x="16" y="29" width="5" height="1"/><rect x="6" y="30" width="1" height="1"/><rect x="11" y="30" width="5" height="1"/><rect x="7" y="31" width="4" height="1"/></g></svg>