<?xml version="1.0" encoding="UTF-8"?><svg xmlns="http://www.w3.org/2000/svg" version="1.2" baseProfile="tiny" viewBox="0 0 32 32" width="32px" height="32px"><g fill="#ebdbb2"><rect height="1" x="17" width="2"/><rect height="1" x="16" y="1" width="1"/><rect width="1" height="1" x="19" y="1"/><rect x="14" y="2" width="2" height="1"/><rect height="9" x="18" y="2" width="1"/><rect height="1" x="20" y="2" width="1"/><rect y="3" width="1" height="1" x="13"/><rect x="16" y="3" width="3" height="1"/><rect y="3" width="1" height="1" x="21"/><rect x="12" y="4" width="1" height="4"/><rect width="3" height="1" x="14" y="4"/><rect x="19" y="4" width="2" height="1"/><rect height="2" x="22" y="4" width="1"/><rect y="5" width="1" height="2" x="14"/><rect width="3" height="1" x="16" y="5"/><rect x="20" y="5" width="1" height="7"/><rect y="6" width="5" height="1" x="8"/><rect x="15" y="6" width="2" height="1"/><rect height="1" x="19" y="6" width="2"/><rect x="23" y="6" width="1" height="1"/><rect y="7" width="1" height="1" x="7"/><rect y="7" width="1" height="2" x="13"/><rect x="16" y="7" width="3" height="1"/><rect y="7" width="2" height="1" x="21"/><rect width="1" height="2" x="24" y="7"/><rect x="5" y="8" width="2" height="1"/><rect x="8" y="8" width="1" height="14"/><rect x="10" y="8" width="2" height="1"/><rect x="14" y="8" width="1" height="2"/><rect height="1" x="16" y="8" width="1"/><rect x="19" y="8" width="2" height="1"/><rect x="22" y="8" width="1" height="7"/><rect height="1" x="4" y="9" width="1"/><rect x="9" y="9" width="2" height="1"/><rect x="12" y="9" width="1" height="19"/><rect x="15" y="9" width="1" height="2"/><rect x="17" y="9" width="2" height="1"/><rect y="9" width="2" height="1" x="21"/><rect width="1" height="1" x="25" y="9"/><rect width="2" height="1" x="2" y="10"/><rect x="6" y="10" width="3" height="1"/><rect width="3" height="1" x="10" y="10"/><rect x="16" y="10" width="1" height="2"/><rect x="19" y="10" width="2" height="1"/><rect x="23" y="10" width="2" height="1"/><rect width="1" height="2" x="26" y="10"/><rect width="1" height="1" x="1" y="11"/><rect y="11" width="3" height="1" x="4"/><rect height="1" x="9" y="11" width="2"/><rect x="13" y="11" width="2" height="1"/><rect x="17" y="11" width="1" height="5"/><rect x="21" y="11" width="2" height="1"/><rect width="1" height="5" x="24" y="11"/><rect height="2" y="12" width="1"/><rect width="3" height="1" x="2" y="12"/><rect height="1" x="6" y="12" width="3"/><rect height="1" x="10" y="12" width="3"/><rect y="12" width="2" height="1" x="14"/><rect x="18" y="12" width="2" height="3"/><rect y="12" width="2" height="1" x="23"/><rect height="1" x="27" y="12" width="1"/><rect y="13" width="1" height="1" x="2"/><rect width="3" height="1" x="4" y="13"/><rect x="9" y="13" width="2" height="1"/><rect width="2" height="1" x="13" y="13"/><rect height="1" x="21" y="13" width="2"/><rect width="2" height="1" x="25" y="13"/><rect x="28" y="13" width="1" height="2"/><rect width="1" height="1" x="1" y="14"/><rect width="2" height="1" x="3" y="14"/><rect y="14" width="3" height="1" x="6"/><rect width="3" height="1" x="10" y="14"/><rect x="14" y="14" width="2" height="1"/><rect y="14" width="1" height="2" x="20"/><rect height="1" x="23" y="14" width="2"/><rect height="8" x="26" y="14" width="1"/><rect y="15" width="1" height="1" x="2"/><rect width="3" height="1" x="4" y="15"/><rect y="15" width="2" height="1" x="9"/><rect width="2" height="1" x="13" y="15"/><rect y="15" width="2" height="1" x="16"/><rect y="15" width="1" height="2" x="21"/><rect x="25" y="15" width="2" height="1"/><rect x="29" y="15" width="1" height="1"/><rect height="2" x="3" y="16" width="1"/><rect x="6" y="16" width="3" height="1"/><rect height="1" x="10" y="16" width="3"/><rect width="1" height="1" x="14" y="16"/><rect width="1" height="1" x="16" y="16"/><rect x="18" y="16" width="2" height="1"/><rect width="1" height="4" x="22" y="16"/><rect height="1" x="27" y="16" width="2"/><rect width="1" height="1" x="30" y="16"/><rect y="17" width="2" height="1" x="5"/><rect height="1" x="9" y="17" width="2"/><rect width="1" height="1" x="13" y="17"/><rect x="15" y="17" width="1" height="5"/><rect y="17" width="2" height="1" x="17"/><rect x="20" y="17" width="1" height="9"/><rect y="17" width="2" height="3" x="23"/><rect x="28" y="17" width="2" height="1"/><rect x="31" y="17" width="1" height="3"/><rect x="4" y="18" width="1" height="1"/><rect x="6" y="18" width="3" height="1"/><rect width="3" height="1" x="10" y="18"/><rect width="3" height="1" x="18" y="18"/><rect y="18" width="2" height="1" x="27"/><rect height="2" x="5" y="19" width="1"/><rect x="9" y="19" width="2" height="1"/><rect width="3" height="3" x="14" y="19"/><rect y="19" width="1" height="8" x="18"/><rect x="28" y="19" width="2" height="1"/><rect height="1" x="7" y="20" width="2"/><rect x="10" y="20" width="3" height="1"/><rect y="20" width="2" height="1" x="19"/><rect x="27" y="20" width="1" height="1"/><rect y="20" width="1" height="1" x="30"/><rect x="6" y="21" width="1" height="1"/><rect width="2" height="1" x="9" y="21"/><rect width="2" height="1" x="21" y="21"/><rect x="24" y="21" width="3" height="1"/><rect x="28" y="21" width="2" height="1"/><rect width="1" height="2" x="7" y="22"/><rect y="22" width="3" height="1" x="10"/><rect x="19" y="22" width="2" height="1"/><rect height="1" x="22" y="22" width="3"/><rect y="22" width="1" height="1" x="27"/><rect x="9" y="23" width="2" height="1"/><rect width="2" height="1" x="13" y="23"/><rect x="16" y="23" width="3" height="1"/><rect x="21" y="23" width="2" height="1"/><rect height="1" x="25" y="23" width="2"/><rect y="24" width="1" height="1" x="8"/><rect width="3" height="1" x="10" y="24"/><rect x="14" y="24" width="3" height="1"/><rect height="1" x="19" y="24" width="2"/><rect x="24" y="24" width="1" height="1"/><rect height="2" x="9" y="25" width="1"/><rect width="2" height="1" x="13" y="25"/><rect x="16" y="25" width="3" height="1"/><rect width="2" height="1" x="22" y="25"/><rect x="11" y="26" width="2" height="1"/><rect x="14" y="26" width="3" height="1"/><rect height="1" x="21" y="26" width="1"/><rect width="1" height="1" x="10" y="27"/><rect x="13" y="27" width="2" height="1"/><rect x="16" y="27" width="2" height="1"/><rect x="19" y="27" width="2" height="1"/><rect width="1" height="2" x="11" y="28"/><rect width="2" height="1" x="14" y="28"/><rect y="28" width="1" height="1" x="18"/><rect x="13" y="29" width="2" height="1"/><rect width="2" height="1" x="16" y="29"/><rect height="1" x="12" y="30" width="1"/><rect x="15" y="30" width="1" height="1"/><rect x="13" y="31" width="2" height="1"/></g></svg>