<?xml version="1.0" encoding="UTF-8"?><svg width="32px" height="32px" xmlns="http://www.w3.org/2000/svg" version="1.2" baseProfile="tiny" viewBox="0 0 32 32"><g fill="#ebdbb2"><rect x="9" width="9" height="1"/><rect y="1" width="2" height="1" x="7"/><rect x="18" y="1" width="2" height="1"/><rect x="6" y="2" width="1" height="1"/><rect height="1" x="9" y="2" width="9"/><rect y="2" width="2" height="1" x="20"/><rect height="1" x="5" y="3" width="1"/><rect height="1" x="7" y="3" width="3"/><rect y="3" width="1" height="1" x="11"/><rect y="3" width="1" height="1" x="13"/><rect height="1" x="15" y="3" width="1"/><rect x="17" y="3" width="3" height="1"/><rect width="2" height="1" x="22" y="3"/><rect x="4" y="4" width="1" height="3"/><rect x="6" y="4" width="1" height="3"/><rect height="1" x="9" y="4" width="2"/><rect x="12" y="4" width="1" height="2"/><rect width="1" height="1" x="14" y="4"/><rect x="16" y="4" width="1" height="1"/><rect x="18" y="4" width="1" height="1"/><rect y="4" width="2" height="1" x="20"/><rect height="1" x="24" y="4" width="2"/><rect height="1" x="7" y="5" width="2"/><rect y="5" width="3" height="1" x="11"/><rect width="1" height="1" x="15" y="5"/><rect width="1" height="1" x="17" y="5"/><rect width="1" height="1" x="19" y="5"/><rect width="3" height="1" x="21" y="5"/><rect height="1" x="26" y="5" width="1"/><rect width="2" height="1" x="9" y="6"/><rect x="13" y="6" width="2" height="1"/><rect x="16" y="6" width="1" height="2"/><rect x="18" y="6" width="1" height="2"/><rect x="20" y="6" width="1" height="2"/><rect width="1" height="2" x="22" y="6"/><rect height="2" x="24" y="6" width="2"/><rect x="27" y="6" width="1" height="1"/><rect height="1" x="5" y="7" width="1"/><rect height="1" x="7" y="7" width="1"/><rect y="7" width="2" height="1" x="11"/><rect x="15" y="7" width="12" height="1"/><rect width="1" height="19" x="28" y="7"/><rect height="4" x="6" y="8" width="1"/><rect width="1" height="4" x="8" y="8"/><rect x="12" y="8" width="3" height="1"/><rect height="1" x="17" y="8" width="1"/><rect x="26" y="8" width="1" height="18"/><rect x="11" y="9" width="1" height="6"/><rect x="15" y="9" width="2" height="1"/><rect width="7" height="1" x="18" y="9"/><rect width="1" height="1" x="16" y="10"/><rect x="18" y="10" width="1" height="1"/><rect width="1" height="1" x="20" y="10"/><rect y="10" width="1" height="1" x="22"/><rect width="1" height="15" x="24" y="10"/><rect x="17" y="11" width="1" height="1"/><rect x="19" y="11" width="1" height="1"/><rect height="1" x="21" y="11" width="1"/><rect width="2" height="1" x="23" y="11"/><rect x="5" y="12" width="1" height="2"/><rect width="1" height="2" x="7" y="12"/><rect width="1" height="4" x="18" y="12"/><rect height="5" x="20" y="12" width="1"/><rect width="1" height="1" x="22" y="12"/><rect x="21" y="13" width="1" height="1"/><rect x="23" y="13" width="2" height="1"/><rect y="14" width="1" height="5" x="4"/><rect height="5" x="6" y="14" width="1"/><rect y="14" width="3" height="1" x="9"/><rect height="1" x="22" y="14" width="1"/><rect width="2" height="1" x="7" y="15"/><rect x="12" y="15" width="2" height="1"/><rect width="1" height="1" x="21" y="15"/><rect x="23" y="15" width="2" height="1"/><rect y="16" width="2" height="1" x="9"/><rect height="1" x="14" y="16" width="2"/><rect width="1" height="2" x="17" y="16"/><rect x="19" y="16" width="2" height="1"/><rect x="22" y="16" width="1" height="1"/><rect y="17" width="1" height="1" x="8"/><rect x="11" y="17" width="2" height="1"/><rect y="17" width="2" height="1" x="16"/><rect x="19" y="17" width="1" height="1"/><rect width="1" height="1" x="21" y="17"/><rect x="23" y="17" width="2" height="1"/><rect x="9" y="18" width="2" height="1"/><rect x="13" y="18" width="2" height="1"/><rect height="6" x="16" y="18" width="1"/><rect y="18" width="1" height="5" x="18"/><rect width="1" height="1" x="20" y="18"/><rect width="1" height="1" x="22" y="18"/><rect x="5" y="19" width="1" height="6"/><rect y="19" width="2" height="1" x="7"/><rect width="2" height="1" x="11" y="19"/><rect y="19" width="2" height="1" x="15"/><rect height="1" x="19" y="19" width="1"/><rect width="1" height="1" x="21" y="19"/><rect x="23" y="19" width="2" height="1"/><rect width="1" height="5" x="7" y="20"/><rect y="20" width="2" height="1" x="9"/><rect x="13" y="20" width="2" height="1"/><rect width="1" height="1" x="20" y="20"/><rect x="22" y="20" width="1" height="1"/><rect x="11" y="21" width="2" height="1"/><rect y="21" width="1" height="1" x="19"/><rect width="1" height="1" x="21" y="21"/><rect y="21" width="2" height="1" x="23"/><rect width="2" height="2" x="9" y="22"/><rect height="1" x="13" y="22" width="2"/><rect width="1" height="1" x="20" y="22"/><rect height="1" x="22" y="22" width="1"/><rect height="2" x="11" y="23" width="2"/><rect x="15" y="23" width="3" height="1"/><rect x="19" y="23" width="1" height="4"/><rect y="23" width="1" height="1" x="21"/><rect x="23" y="23" width="2" height="2"/><rect width="5" height="1" x="10" y="24"/><rect x="17" y="24" width="1" height="6"/><rect y="24" width="1" height="1" x="20"/><rect height="1" x="22" y="24" width="3"/><rect x="6" y="25" width="1" height="1"/><rect y="25" width="2" height="1" x="8"/><rect height="1" x="12" y="25" width="4"/><rect x="21" y="25" width="2" height="1"/><rect y="25" width="2" height="1" x="25"/><rect x="7" y="26" width="1" height="1"/><rect x="10" y="26" width="2" height="1"/><rect x="14" y="26" width="2" height="1"/><rect y="26" width="1" height="1" x="20"/><rect height="1" x="23" y="26" width="2"/><rect x="27" y="26" width="1" height="1"/><rect x="8" y="27" width="2" height="1"/><rect x="12" y="27" width="2" height="1"/><rect x="21" y="27" width="2" height="1"/><rect width="2" height="1" x="25" y="27"/><rect width="2" height="1" x="10" y="28"/><rect x="14" y="28" width="2" height="1"/><rect width="2" height="1" x="19" y="28"/><rect x="23" y="28" width="2" height="1"/><rect x="12" y="29" width="2" height="1"/><rect x="16" y="29" width="3" height="1"/><rect height="1" x="21" y="29" width="2"/><rect x="14" y="30" width="2" height="1"/><rect width="2" height="1" x="19" y="30"/><rect height="1" x="16" y="31" width="3"/></g></svg>