<?xml version="1.0" encoding="UTF-8"?><svg viewBox="0 0 32 32" width="32px" height="32px" xmlns="http://www.w3.org/2000/svg" version="1.2" baseProfile="tiny"><g fill="#ebdbb2"><rect x="13" width="6" height="1"/><rect width="3" height="1" x="10" y="1"/><rect width="3" height="1" x="19" y="1"/><rect y="2" width="2" height="1" x="8"/><rect height="1" x="17" y="2" width="2"/><rect x="22" y="2" width="2" height="3"/><rect y="3" width="1" height="1" x="7"/><rect x="9" y="3" width="1" height="1"/><rect x="13" y="3" width="1" height="1"/><rect x="18" y="3" width="7" height="1"/><rect x="6" y="4" width="1" height="1"/><rect width="7" height="1" x="19" y="4"/><rect height="1" x="5" y="5" width="1"/><rect x="7" y="5" width="1" height="1"/><rect x="11" y="5" width="1" height="1"/><rect y="5" width="1" height="1" x="15"/><rect x="19" y="5" width="3" height="2"/><rect x="23" y="5" width="4" height="2"/><rect height="1" x="4" y="6" width="1"/><rect x="12" y="6" width="1" height="1"/><rect x="22" y="6" width="6" height="1"/><rect width="1" height="1" x="3" y="7"/><rect x="5" y="7" width="1" height="1"/><rect x="9" y="7" width="1" height="1"/><rect x="11" y="7" width="1" height="1"/><rect height="1" x="13" y="7" width="2"/><rect x="17" y="7" width="1" height="1"/><rect x="19" y="7" width="1" height="21"/><rect height="2" x="21" y="7" width="3"/><rect x="25" y="7" width="2" height="2"/><rect height="1" x="28" y="7" width="1"/><rect x="2" y="8" width="1" height="3"/><rect width="3" height="1" x="14" y="8"/><rect x="20" y="8" width="7" height="1"/><rect height="11" x="29" y="8" width="1"/><rect height="1" x="3" y="9" width="1"/><rect width="1" height="1" x="5" y="9"/><rect x="7" y="9" width="1" height="1"/><rect y="9" width="1" height="1" x="9"/><rect y="9" width="1" height="1" x="11"/><rect width="1" height="1" x="13" y="9"/><rect height="1" x="16" y="9" width="6"/><rect x="23" y="9" width="3" height="2"/><rect x="27" y="9" width="1" height="15"/><rect x="1" y="10" width="2" height="1"/><rect width="14" height="1" x="17" y="10"/><rect y="11" width="1" height="11" x="1"/><rect x="3" y="11" width="1" height="1"/><rect y="11" width="1" height="1" x="5"/><rect width="1" height="1" x="7" y="11"/><rect x="9" y="11" width="1" height="1"/><rect height="1" x="11" y="11" width="1"/><rect x="13" y="11" width="1" height="1"/><rect x="15" y="11" width="1" height="1"/><rect height="2" x="17" y="11" width="3"/><rect height="2" x="21" y="11" width="3"/><rect x="25" y="11" width="3" height="2"/><rect x="30" y="11" width="1" height="6"/><rect height="1" x="2" y="12" width="1"/><rect x="20" y="12" width="11" height="1"/><rect width="2" height="6" y="13"/><rect y="13" width="1" height="1" x="3"/><rect x="7" y="13" width="1" height="1"/><rect height="1" x="11" y="13" width="1"/><rect width="1" height="1" x="13" y="13"/><rect x="15" y="13" width="1" height="1"/><rect y="13" width="1" height="3" x="17"/><rect height="2" x="20" y="13" width="2"/><rect height="2" x="23" y="13" width="3"/><rect x="28" y="13" width="4" height="2"/><rect x="2" y="14" width="1" height="3"/><rect x="6" y="14" width="1" height="3"/><rect width="16" height="1" x="16" y="14"/><rect height="2" x="3" y="15" width="4"/><rect y="15" width="1" height="1" x="9"/><rect y="15" width="1" height="1" x="13"/><rect x="15" y="15" width="5" height="1"/><rect x="21" y="15" width="3" height="2"/><rect y="15" width="3" height="2" x="25"/><rect y="15" width="1" height="4" x="31"/><rect x="7" y="16" width="1" height="13"/><rect height="3" x="16" y="16" width="1"/><rect height="1" x="18" y="16" width="14"/><rect x="3" y="17" width="3" height="2"/><rect height="2" x="8" y="17" width="1"/><rect x="11" y="17" width="1" height="1"/><rect x="20" y="17" width="2" height="6"/><rect width="3" height="2" x="23" y="17"/><rect x="28" y="17" width="2" height="2"/><rect height="1" x="2" y="18" width="7"/><rect height="1" x="22" y="18" width="8"/><rect x="2" y="19" width="2" height="5"/><rect y="19" width="3" height="2" x="5"/><rect x="9" y="19" width="1" height="1"/><rect width="1" height="1" x="13" y="19"/><rect height="8" x="15" y="19" width="1"/><rect x="22" y="19" width="2" height="2"/><rect x="25" y="19" width="4" height="2"/><rect width="1" height="3" x="30" y="19"/><rect x="4" y="20" width="5" height="1"/><rect x="14" y="20" width="2" height="5"/><rect width="11" height="1" x="18" y="20"/><rect x="4" y="21" width="2" height="2"/><rect width="1" height="2" x="8" y="21"/><rect y="21" width="1" height="1" x="11"/><rect height="2" x="16" y="21" width="6"/><rect width="3" height="2" x="23" y="21"/><rect width="1" height="1" x="28" y="21"/><rect width="4" height="1" x="6" y="22"/><rect height="1" x="13" y="22" width="15"/><rect x="29" y="22" width="1" height="2"/><rect x="5" y="23" width="3" height="2"/><rect width="3" height="2" x="9" y="23"/><rect y="23" width="3" height="2" x="13"/><rect x="17" y="23" width="3" height="2"/><rect y="23" width="3" height="2" x="21"/><rect x="25" y="23" width="3" height="1"/><rect width="24" height="1" x="3" y="24"/><rect x="28" y="24" width="1" height="1"/><rect x="4" y="25" width="2" height="1"/><rect y="25" width="2" height="2" x="8"/><rect x="11" y="25" width="3" height="2"/><rect height="2" x="16" y="25" width="2"/><rect width="2" height="2" x="20" y="25"/><rect height="2" x="23" y="25" width="3"/><rect height="1" x="27" y="25" width="1"/><rect width="22" height="1" x="5" y="26"/><rect y="27" width="2" height="1" x="6"/><rect y="27" width="3" height="1" x="9"/><rect height="1" x="13" y="27" width="2"/><rect x="21" y="27" width="3" height="2"/><rect x="25" y="27" width="1" height="1"/><rect width="3" height="1" x="8" y="28"/><rect height="1" x="24" y="28" width="1"/><rect height="1" x="8" y="29" width="2"/><rect x="22" y="29" width="2" height="1"/><rect x="10" y="30" width="3" height="1"/><rect x="19" y="30" width="3" height="1"/><rect x="13" y="31" width="6" height="1"/></g></svg>