<?xml version="1.0" encoding="UTF-8"?><svg xmlns="http://www.w3.org/2000/svg" version="1.2" baseProfile="tiny" viewBox="0 0 32 32" width="32px" height="32px"><g fill="#ebdbb2"><rect width="26" height="1" x="3" y="1"/><rect x="2" y="2" width="1" height="1"/><rect height="1" x="29" y="2" width="1"/><rect height="26" x="1" y="3" width="1"/><rect width="1" height="3" x="3" y="3"/><rect y="3" width="1" height="3" x="5"/><rect height="2" x="8" y="3" width="2"/><rect height="2" x="11" y="3" width="3"/><rect x="26" y="3" width="1" height="1"/><rect width="1" height="1" x="28" y="3"/><rect x="30" y="3" width="1" height="26"/><rect height="1" x="4" y="4" width="2"/><rect height="1" x="7" y="4" width="3"/><rect x="27" y="4" width="1" height="1"/><rect x="7" y="5" width="1" height="1"/><rect height="1" x="9" y="5" width="1"/><rect x="11" y="5" width="1" height="1"/><rect y="5" width="1" height="1" x="26"/><rect height="1" x="28" y="5" width="1"/><rect height="1" x="3" y="7" width="26"/><rect width="1" height="6" x="3" y="8"/><rect x="13" y="8" width="2" height="3"/><rect y="8" width="3" height="2" x="16"/><rect x="20" y="8" width="3" height="2"/><rect x="24" y="8" width="3" height="2"/><rect x="28" y="8" width="1" height="21"/><rect x="15" y="9" width="14" height="1"/><rect x="4" y="10" width="13" height="1"/><rect y="10" width="3" height="2" x="18"/><rect height="2" x="22" y="10" width="3"/><rect x="26" y="10" width="3" height="2"/><rect width="2" height="1" x="5" y="11"/><rect x="10" y="11" width="1" height="3"/><rect x="14" y="11" width="15" height="1"/><rect y="12" width="1" height="17" x="6"/><rect width="1" height="2" x="14" y="12"/><rect x="16" y="12" width="3" height="2"/><rect y="12" width="3" height="2" x="20"/><rect y="12" width="3" height="2" x="24"/><rect x="4" y="13" width="25" height="1"/><rect x="4" y="14" width="3" height="2"/><rect x="8" y="14" width="2" height="1"/><rect x="15" y="14" width="1" height="3"/><rect height="3" x="22" y="14" width="3"/><rect y="14" width="3" height="2" x="26"/><rect x="3" y="15" width="4" height="1"/><rect y="15" width="1" height="14" x="9"/><rect width="4" height="1" x="25" y="15"/><rect y="16" width="2" height="2" x="3"/><rect y="16" width="20" height="1" x="7"/><rect x="5" y="17" width="2" height="3"/><rect width="2" height="10" x="8" y="17"/><rect x="11" y="17" width="2" height="1"/><rect height="3" x="21" y="17" width="1"/><rect x="26" y="17" width="3" height="3"/><rect y="18" width="3" height="2" x="4"/><rect x="12" y="18" width="1" height="8"/><rect x="3" y="19" width="26" height="1"/><rect x="3" y="20" width="2" height="2"/><rect x="11" y="20" width="2" height="4"/><rect x="14" y="20" width="2" height="1"/><rect height="2" x="23" y="20" width="4"/><rect x="5" y="21" width="2" height="3"/><rect width="1" height="2" x="15" y="21"/><rect y="21" width="2" height="3" x="27"/><rect x="4" y="22" width="21" height="1"/><rect x="26" y="22" width="3" height="2"/><rect y="23" width="4" height="1" x="3"/><rect x="17" y="23" width="1" height="3"/><rect y="23" width="5" height="1" x="24"/><rect width="2" height="2" x="3" y="24"/><rect x="24" y="24" width="3" height="2"/><rect x="5" y="25" width="24" height="1"/><rect y="26" width="3" height="2" x="4"/><rect x="18" y="26" width="3" height="2"/><rect x="22" y="26" width="3" height="2"/><rect width="3" height="2" x="26" y="26"/><rect y="27" width="4" height="1" x="3"/><rect x="21" y="27" width="8" height="1"/><rect x="3" y="28" width="2" height="1"/><rect y="28" width="12" height="1" x="7"/><rect y="28" width="3" height="1" x="20"/><rect width="3" height="1" x="24" y="28"/><rect height="1" x="2" y="29" width="1"/><rect y="29" width="1" height="1" x="29"/><rect x="3" y="30" width="26" height="1"/></g></svg>