<?xml version="1.0" encoding="UTF-8" standalone="no"?>
<svg
   viewBox="0 0 32 32"
   width="32px"
   height="32px"
   version="1.2"
   id="svg1470"
   sodipodi:docname="me.svg"
   inkscape:version="1.2.2 (b0a8486541, 2022-12-01)"
   xmlns:inkscape="http://www.inkscape.org/namespaces/inkscape"
   xmlns:sodipodi="http://sodipodi.sourceforge.net/DTD/sodipodi-0.dtd"
   xmlns="http://www.w3.org/2000/svg"
   xmlns:svg="http://www.w3.org/2000/svg">
  <defs
     id="defs1474" />
  <sodipodi:namedview
     id="namedview1472"
     pagecolor="#ffffff"
     bordercolor="#666666"
     borderopacity="1.0"
     inkscape:showpageshadow="2"
     inkscape:pageopacity="0.0"
     inkscape:pagecheckerboard="0"
     inkscape:deskcolor="#d1d1d1"
     showgrid="false"
     inkscape:zoom="256"
     inkscape:cx="18.400391"
     inkscape:cy="19.115234"
     inkscape:window-width="1366"
     inkscape:window-height="739"
     inkscape:window-x="1366"
     inkscape:window-y="0"
     inkscape:window-maximized="1"
     inkscape:current-layer="g1468" />
  <g
     fill="#ebdbb2"
     id="g1468">
    <rect
       width="2"
       height="1"
       x="8"
       id="rect926" />
    <rect
       x="26"
       width="3"
       height="1"
       id="rect928" />
    <rect
       height="1"
       x="7"
       y="1"
       width="1"
       id="rect930" />
    <rect
       x="10"
       y="1"
       width="2"
       height="1"
       id="rect932" />
    <rect
       width="2"
       height="1"
       x="17"
       y="1"
       id="rect934" />
    <rect
       width="2"
       height="1"
       x="24"
       y="1"
       id="rect936" />
    <rect
       y="1"
       width="1"
       height="2"
       x="29"
       id="rect938" />
    <rect
       y="2"
       width="2"
       height="1"
       x="5"
       id="rect940" />
    <rect
       x="8"
       y="2"
       width="2"
       height="1"
       id="rect942" />
    <rect
       y="2"
       width="1"
       height="1"
       x="12"
       id="rect944" />
    <rect
       height="1"
       x="16"
       y="2"
       width="1"
       id="rect946" />
    <rect
       x="19"
       y="2"
       width="1"
       height="1"
       id="rect948" />
    <rect
       x="23"
       y="2"
       width="1"
       height="1"
       id="rect950" />
    <rect
       y="3"
       width="1"
       height="2"
       x="4"
       id="rect952" />
    <rect
       width="1"
       height="1"
       x="7"
       y="3"
       id="rect954" />
    <rect
       x="10"
       y="3"
       width="2"
       height="1"
       id="rect956" />
    <rect
       height="1"
       x="13"
       y="3"
       width="1"
       id="rect958" />
    <rect
       height="1"
       x="15"
       y="3"
       width="1"
       id="rect960" />
    <rect
       y="3"
       width="2"
       height="1"
       x="17"
       id="rect962" />
    <rect
       y="3"
       width="1"
       height="1"
       x="20"
       id="rect964" />
    <rect
       x="22"
       y="3"
       width="1"
       height="1"
       id="rect966" />
    <rect
       height="6"
       x="24"
       y="3"
       width="2"
       id="rect968" />
    <rect
       y="3"
       width="1"
       height="2"
       x="28"
       id="rect970" />
    <rect
       height="1"
       x="30"
       y="3"
       width="1"
       id="rect972" />
    <rect
       y="4"
       width="2"
       height="1"
       x="8"
       id="rect974" />
    <rect
       y="4"
       width="1"
       height="2"
       x="12"
       id="rect976" />
    <rect
       y="4"
       width="1"
       height="1"
       x="14"
       id="rect978" />
    <rect
       x="16"
       y="4"
       width="1"
       height="1"
       id="rect980" />
    <rect
       height="1"
       x="19"
       y="4"
       width="1"
       id="rect982" />
    <rect
       x="21"
       y="4"
       width="1"
       height="1"
       id="rect984" />
    <rect
       y="4"
       width="3"
       height="5"
       x="23"
       id="rect986" />
    <rect
       x="27"
       y="4"
       width="3"
       height="1"
       id="rect988" />
    <rect
       y="4"
       width="1"
       height="1"
       x="31"
       id="rect990" />
    <rect
       x="3"
       y="5"
       width="1"
       height="2"
       id="rect992" />
    <rect
       x="5"
       y="5"
       width="1"
       height="2"
       id="rect994" />
    <rect
       width="1"
       height="1"
       x="10"
       y="5"
       id="rect996" />
    <rect
       width="1"
       height="2"
       x="15"
       y="5"
       id="rect998" />
    <rect
       width="1"
       height="1"
       x="20"
       y="5"
       id="rect1000" />
    <rect
       y="5"
       width="5"
       height="3"
       x="22"
       id="rect1002" />
    <rect
       x="30"
       y="5"
       width="1"
       height="1"
       id="rect1004" />
    <rect
       x="6"
       y="6"
       width="1"
       height="1"
       id="rect1006" />
    <rect
       x="9"
       y="6"
       width="1"
       height="1"
       id="rect1008" />
    <rect
       y="6"
       width="1"
       height="1"
       x="11"
       id="rect1010" />
    <rect
       x="13"
       y="6"
       width="1"
       height="1"
       id="rect1012" />
    <rect
       width="1"
       height="1"
       x="17"
       y="6"
       id="rect1014" />
    <rect
       x="19"
       y="6"
       width="1"
       height="1"
       id="rect1016" />
    <rect
       x="29"
       y="6"
       width="1"
       height="3"
       id="rect1018" />
    <rect
       y="7"
       width="1"
       height="1"
       x="4"
       id="rect1020" />
    <rect
       width="1"
       height="1"
       x="8"
       y="7"
       id="rect1022" />
    <rect
       x="10"
       y="7"
       width="1"
       height="1"
       id="rect1024" />
    <rect
       x="12"
       y="7"
       width="1"
       height="1"
       id="rect1026" />
    <rect
       x="14"
       y="7"
       width="1"
       height="1"
       id="rect1028" />
    <rect
       y="7"
       width="1"
       height="1"
       x="16"
       id="rect1030" />
    <rect
       y="7"
       width="1"
       height="1"
       x="18"
       id="rect1032" />
    <rect
       x="20"
       y="7"
       width="1"
       height="1"
       id="rect1034" />
    <rect
       x="3"
       y="8"
       width="1"
       height="1"
       id="rect1036" />
    <rect
       y="8"
       width="1"
       height="1"
       x="5"
       id="rect1038" />
    <rect
       x="7"
       y="8"
       width="1"
       height="1"
       id="rect1040" />
    <rect
       width="1"
       height="1"
       x="9"
       y="8"
       id="rect1042" />
    <rect
       height="1"
       x="11"
       y="8"
       width="1"
       id="rect1044" />
    <rect
       width="1"
       height="1"
       x="13"
       y="8"
       id="rect1046" />
    <rect
       x="15"
       y="8"
       width="1"
       height="1"
       id="rect1048" />
    <rect
       x="17"
       y="8"
       width="1"
       height="1"
       id="rect1050" />
    <rect
       x="19"
       y="8"
       width="1"
       height="1"
       id="rect1052" />
    <rect
       width="4"
       height="1"
       x="22"
       y="8"
       id="rect1054" />
    <rect
       height="2"
       x="27"
       y="8"
       width="1"
       id="rect1056" />
    <rect
       x="2"
       y="9"
       width="1"
       height="1"
       id="rect1058" />
    <rect
       x="4"
       y="9"
       width="1"
       height="1"
       id="rect1060" />
    <rect
       width="1"
       height="1"
       x="6"
       y="9"
       id="rect1062" />
    <rect
       width="1"
       height="1"
       x="8"
       y="9"
       id="rect1064" />
    <rect
       height="1"
       x="10"
       y="9"
       width="1"
       id="rect1066" />
    <rect
       y="9"
       width="1"
       height="1"
       x="12"
       id="rect1068" />
    <rect
       width="1"
       height="1"
       x="14"
       y="9"
       id="rect1070" />
    <rect
       x="16"
       y="9"
       width="1"
       height="1"
       id="rect1072" />
    <rect
       x="18"
       y="9"
       width="1"
       height="1"
       id="rect1074" />
    <rect
       x="20"
       y="9"
       width="1"
       height="1"
       id="rect1076" />
    <rect
       x="23"
       y="9"
       width="1"
       height="1"
       id="rect1078" />
    <rect
       x="25"
       y="9"
       width="1"
       height="1"
       id="rect1080" />
    <rect
       width="1"
       height="2"
       x="28"
       y="9"
       id="rect1082" />
    <rect
       width="1"
       height="3"
       x="30"
       y="9"
       id="rect1084" />
    <rect
       height="3"
       x="1"
       y="10"
       width="1"
       id="rect1086" />
    <rect
       height="1"
       x="3"
       y="10"
       width="1"
       id="rect1088" />
    <rect
       width="1"
       height="1"
       x="5"
       y="10"
       id="rect1090" />
    <rect
       width="1"
       height="1"
       x="7"
       y="10"
       id="rect1092" />
    <rect
       x="9"
       y="10"
       width="1"
       height="1"
       id="rect1094" />
    <rect
       width="1"
       height="1"
       x="11"
       y="10"
       id="rect1096" />
    <rect
       y="10"
       width="1"
       height="1"
       x="13"
       id="rect1098" />
    <rect
       x="15"
       y="10"
       width="1"
       height="1"
       id="rect1100" />
    <rect
       x="17"
       y="10"
       width="1"
       height="1"
       id="rect1102" />
    <rect
       height="1"
       x="19"
       y="10"
       width="1"
       id="rect1104" />
    <rect
       width="1"
       height="1"
       x="21"
       y="10"
       id="rect1106" />
    <rect
       y="10"
       width="1"
       height="1"
       x="26"
       id="rect1108" />
    <rect
       x="4"
       y="11"
       width="1"
       height="1"
       id="rect1110" />
    <rect
       width="1"
       height="1"
       x="6"
       y="11"
       id="rect1112" />
    <rect
       x="8"
       y="11"
       width="1"
       height="1"
       id="rect1114" />
    <rect
       x="10"
       y="11"
       width="1"
       height="1"
       id="rect1116" />
    <rect
       x="14"
       y="11"
       width="1"
       height="1"
       id="rect1118" />
    <rect
       x="16"
       y="11"
       width="1"
       height="1"
       id="rect1120" />
    <rect
       y="11"
       width="1"
       height="1"
       x="18"
       id="rect1122" />
    <rect
       x="20"
       y="11"
       width="1"
       height="1"
       id="rect1124" />
    <rect
       x="22"
       y="11"
       width="1"
       height="1"
       id="rect1126" />
    <rect
       y="11"
       width="1"
       height="1"
       x="24"
       id="rect1128" />
    <rect
       width="1"
       height="2"
       x="27"
       y="11"
       id="rect1130" />
    <rect
       x="3"
       y="12"
       width="1"
       height="1"
       id="rect1132" />
    <rect
       x="5"
       y="12"
       width="1"
       height="1"
       id="rect1134" />
    <rect
       width="1"
       height="1"
       x="7"
       y="12"
       id="rect1136" />
    <rect
       height="1"
       x="17"
       y="12"
       width="1"
       id="rect1140" />
    <rect
       height="1"
       x="19"
       y="12"
       width="1"
       id="rect1142" />
    <rect
       height="1"
       x="21"
       y="12"
       width="1"
       id="rect1144" />
    <rect
       x="23"
       y="12"
       width="1"
       height="1"
       id="rect1146" />
    <rect
       x="25"
       y="12"
       width="1"
       height="1"
       id="rect1148" />
    <rect
       x="29"
       y="12"
       width="1"
       height="1"
       id="rect1150" />
    <rect
       y="12"
       width="1"
       height="5"
       x="31"
       id="rect1152" />
    <rect
       y="13"
       width="1"
       height="3"
       id="rect1154" />
    <rect
       height="1"
       x="2"
       y="13"
       width="1"
       id="rect1156" />
    <rect
       x="4"
       y="13"
       width="1"
       height="1"
       id="rect1158" />
    <rect
       height="1"
       x="6"
       y="13"
       width="1"
       id="rect1160" />
    <rect
       y="12.001337"
       width="1"
       height="5.9986629"
       x="11"
       id="rect1162"
       style="stroke-width:1.09532" />
    <rect
       x="20"
       y="13"
       width="1"
       height="1"
       id="rect1166" />
    <rect
       width="1"
       height="1"
       x="22"
       y="13"
       id="rect1168" />
    <rect
       y="13"
       width="1"
       height="1"
       x="24"
       id="rect1170" />
    <rect
       height="1"
       x="26"
       y="13"
       width="1"
       id="rect1172" />
    <rect
       y="13"
       width="1"
       height="1"
       x="28"
       id="rect1174" />
    <rect
       x="3"
       y="14"
       width="1"
       height="1"
       id="rect1176" />
    <rect
       height="1"
       x="5"
       y="14"
       width="1"
       id="rect1178" />
    <rect
       width="1"
       height="4"
       x="17"
       y="14"
       id="rect1182" />
    <rect
       x="21"
       y="14"
       width="1"
       height="1"
       id="rect1184" />
    <rect
       x="23"
       y="14"
       width="1"
       height="1"
       id="rect1186" />
    <rect
       x="25"
       y="14"
       width="1"
       height="1"
       id="rect1188" />
    <rect
       y="14"
       width="1"
       height="1"
       x="27"
       id="rect1190" />
    <rect
       x="29"
       y="14"
       width="1"
       height="1"
       id="rect1192" />
    <rect
       x="2"
       y="15"
       width="1"
       height="1"
       id="rect1194" />
    <rect
       width="1"
       height="1"
       x="4"
       y="15"
       id="rect1196" />
    <rect
       x="6"
       y="15"
       width="1"
       height="1"
       id="rect1198" />
    <rect
       x="8"
       y="15"
       width="1"
       height="1"
       id="rect1200" />
    <rect
       x="11.95624"
       y="12.00035"
       width="3.0437603"
       height="4.9974275"
       id="rect1202"
       style="stroke-width:2.75783" />
    <rect
       height="1"
       x="18"
       y="15"
       width="1"
       id="rect1204" />
    <rect
       width="1"
       height="1"
       x="20"
       y="15"
       id="rect1206" />
    <rect
       x="22"
       y="15"
       width="1"
       height="1"
       id="rect1208" />
    <rect
       y="15"
       width="1"
       height="1"
       x="24"
       id="rect1210" />
    <rect
       y="15"
       width="1"
       height="1"
       x="26"
       id="rect1212" />
    <rect
       x="28"
       y="15"
       width="1"
       height="1"
       id="rect1214" />
    <rect
       x="1"
       y="16"
       width="1"
       height="2"
       id="rect1216" />
    <rect
       x="3"
       y="16"
       width="1"
       height="2"
       id="rect1218" />
    <rect
       x="5"
       y="16"
       width="1"
       height="1"
       id="rect1220" />
    <rect
       x="7"
       y="16"
       width="1"
       height="1"
       id="rect1222" />
    <rect
       height="1"
       x="21"
       y="16"
       width="1"
       id="rect1226" />
    <rect
       height="1"
       x="23"
       y="16"
       width="1"
       id="rect1228" />
    <rect
       x="25"
       y="16"
       width="1"
       height="1"
       id="rect1230" />
    <rect
       x="27"
       y="16"
       width="1"
       height="1"
       id="rect1232" />
    <rect
       x="29"
       y="16"
       width="1"
       height="1"
       id="rect1234" />
    <rect
       width="1"
       height="1"
       x="8"
       y="17"
       id="rect1236" />
    <rect
       width="1"
       height="3.0192919"
       x="18"
       y="15.990448"
       id="rect1238"
       style="stroke-width:1.73762" />
    <rect
       x="20"
       y="17"
       width="1"
       height="1"
       id="rect1240" />
    <rect
       x="22"
       y="17"
       width="1"
       height="1"
       id="rect1242" />
    <rect
       x="24"
       y="17"
       width="1"
       height="1"
       id="rect1244" />
    <rect
       x="26"
       y="17"
       width="1"
       height="1"
       id="rect1246" />
    <rect
       x="28"
       y="17"
       width="1"
       height="1"
       id="rect1248" />
    <rect
       x="30"
       y="17"
       width="1"
       height="5"
       id="rect1250" />
    <rect
       x="2"
       y="18"
       width="1"
       height="3"
       id="rect1252" />
    <rect
       height="1"
       x="4"
       y="18"
       width="1"
       id="rect1254" />
    <rect
       width="1"
       height="1"
       x="6"
       y="18"
       id="rect1256" />
    <rect
       x="12"
       y="18"
       width="2"
       height="1"
       id="rect1258" />
    <rect
       x="21"
       y="18"
       width="1"
       height="1"
       id="rect1260" />
    <rect
       height="1"
       x="23"
       y="18"
       width="1"
       id="rect1262" />
    <rect
       height="1"
       x="25"
       y="18"
       width="1"
       id="rect1264" />
    <rect
       x="27"
       y="18"
       width="1"
       height="1"
       id="rect1266" />
    <rect
       y="19"
       width="1"
       height="1"
       x="5"
       id="rect1268" />
    <rect
       x="7"
       y="19"
       width="1"
       height="1"
       id="rect1270" />
    <rect
       height="1"
       x="9"
       y="19"
       width="2"
       id="rect1272" />
    <rect
       height="1"
       x="12"
       y="19"
       width="1"
       id="rect1274" />
    <rect
       x="14"
       y="19"
       width="3"
       height="2"
       id="rect1276" />
    <rect
       y="19"
       width="1"
       height="1"
       x="18"
       id="rect1278" />
    <rect
       height="1"
       x="20"
       y="19"
       width="1"
       id="rect1280" />
    <rect
       x="22"
       y="19"
       width="1"
       height="1"
       id="rect1282" />
    <rect
       y="19"
       width="1"
       height="1"
       x="24"
       id="rect1284" />
    <rect
       x="26"
       y="19"
       width="1"
       height="1"
       id="rect1286" />
    <rect
       width="1"
       height="1"
       x="28"
       y="19"
       id="rect1288" />
    <rect
       x="4"
       y="20"
       width="1"
       height="1"
       id="rect1290" />
    <rect
       x="13"
       y="20"
       width="4"
       height="1"
       id="rect1292" />
    <rect
       height="1"
       x="19"
       y="20"
       width="1"
       id="rect1294" />
    <rect
       x="21"
       y="20"
       width="1"
       height="1"
       id="rect1296" />
    <rect
       height="1"
       x="23"
       y="20"
       width="1"
       id="rect1298" />
    <rect
       height="1"
       x="25"
       y="20"
       width="1"
       id="rect1300" />
    <rect
       x="27"
       y="20"
       width="1"
       height="1"
       id="rect1302" />
    <rect
       x="1"
       y="21"
       width="1"
       height="3"
       id="rect1304" />
    <rect
       height="1"
       x="3"
       y="21"
       width="1"
       id="rect1306" />
    <rect
       y="21"
       width="1"
       height="5"
       x="11"
       id="rect1308" />
    <rect
       x="18"
       y="21"
       width="1"
       height="1"
       id="rect1310" />
    <rect
       height="1"
       x="20"
       y="21"
       width="1"
       id="rect1312" />
    <rect
       height="1"
       x="22"
       y="21"
       width="1"
       id="rect1314" />
    <rect
       width="1"
       height="1"
       x="24"
       y="21"
       id="rect1316" />
    <rect
       width="1"
       height="1"
       x="26"
       y="21"
       id="rect1318" />
    <rect
       x="28"
       y="21"
       width="1"
       height="1"
       id="rect1320" />
    <rect
       y="22"
       width="1"
       height="1"
       x="4"
       id="rect1322" />
    <rect
       x="10"
       y="22"
       width="5"
       height="1"
       id="rect1324" />
    <rect
       height="1"
       x="16"
       y="22"
       width="2"
       id="rect1326" />
    <rect
       width="1"
       height="1"
       x="19"
       y="22"
       id="rect1328" />
    <rect
       height="1"
       x="21"
       y="22"
       width="1"
       id="rect1330" />
    <rect
       width="1"
       height="1"
       x="23"
       y="22"
       id="rect1332" />
    <rect
       x="25"
       y="22"
       width="1"
       height="1"
       id="rect1334" />
    <rect
       x="27"
       y="22"
       width="1"
       height="1"
       id="rect1336" />
    <rect
       x="29"
       y="22"
       width="1"
       height="1"
       id="rect1338" />
    <rect
       x="31"
       y="22"
       width="1"
       height="3"
       id="rect1340" />
    <rect
       y="23"
       width="1"
       height="1"
       x="3"
       id="rect1342" />
    <rect
       height="1"
       x="5"
       y="23"
       width="9"
       id="rect1344" />
    <rect
       x="15"
       y="23"
       width="1"
       height="4"
       id="rect1346" />
    <rect
       width="1"
       height="4"
       x="17"
       y="23"
       id="rect1348" />
    <rect
       x="20"
       y="23"
       width="1"
       height="1"
       id="rect1350" />
    <rect
       x="22"
       y="23"
       width="1"
       height="1"
       id="rect1352" />
    <rect
       x="24"
       y="23"
       width="1"
       height="1"
       id="rect1354" />
    <rect
       x="26"
       y="23"
       width="1"
       height="1"
       id="rect1356" />
    <rect
       x="28"
       y="23"
       width="1"
       height="1"
       id="rect1358" />
    <rect
       y="24"
       width="1"
       height="2"
       id="rect1360" />
    <rect
       height="1"
       x="2"
       y="24"
       width="1"
       id="rect1362" />
    <rect
       height="1"
       x="4"
       y="24"
       width="1"
       id="rect1364" />
    <rect
       width="4"
       height="1"
       x="6"
       y="24"
       id="rect1366" />
    <rect
       x="12"
       y="24"
       width="7"
       height="2"
       id="rect1368" />
    <rect
       x="21"
       y="24"
       width="1"
       height="1"
       id="rect1370" />
    <rect
       x="23"
       y="24"
       width="1"
       height="1"
       id="rect1372" />
    <rect
       height="1"
       x="25"
       y="24"
       width="1"
       id="rect1374" />
    <rect
       x="27"
       y="24"
       width="1"
       height="2"
       id="rect1376" />
    <rect
       height="1"
       x="29"
       y="24"
       width="1"
       id="rect1378" />
    <rect
       x="3"
       y="25"
       width="1"
       height="1"
       id="rect1380" />
    <rect
       x="5"
       y="25"
       width="1"
       height="1"
       id="rect1382" />
    <rect
       x="7"
       y="25"
       width="1"
       height="1"
       id="rect1384" />
    <rect
       height="1"
       x="10"
       y="25"
       width="10"
       id="rect1386" />
    <rect
       x="22"
       y="25"
       width="1"
       height="1"
       id="rect1388" />
    <rect
       height="1"
       x="24"
       y="25"
       width="1"
       id="rect1390" />
    <rect
       width="1"
       height="1"
       x="28"
       y="25"
       id="rect1392" />
    <rect
       width="1"
       height="1"
       x="30"
       y="25"
       id="rect1394" />
    <rect
       width="1"
       height="2"
       x="1"
       y="26"
       id="rect1396" />
    <rect
       x="4"
       y="26"
       width="1"
       height="1"
       id="rect1398" />
    <rect
       height="1"
       x="6"
       y="26"
       width="1"
       id="rect1400" />
    <rect
       x="14"
       y="26"
       width="6"
       height="1"
       id="rect1402" />
    <rect
       x="21"
       y="26"
       width="1"
       height="1"
       id="rect1404" />
    <rect
       x="23"
       y="26"
       width="1"
       height="1"
       id="rect1406" />
    <rect
       x="26"
       y="26"
       width="1"
       height="2"
       id="rect1408" />
    <rect
       height="1"
       x="29"
       y="26"
       width="1"
       id="rect1410" />
    <rect
       width="1"
       height="1"
       x="3"
       y="27"
       id="rect1412" />
    <rect
       x="7"
       y="27"
       width="1"
       height="1"
       id="rect1414" />
    <rect
       y="27"
       width="1"
       height="1"
       x="9"
       id="rect1416" />
    <rect
       x="11"
       y="27"
       width="1"
       height="1"
       id="rect1418" />
    <rect
       x="22"
       y="27"
       width="1"
       height="1"
       id="rect1420" />
    <rect
       x="24"
       y="27"
       width="1"
       height="1"
       id="rect1422" />
    <rect
       y="28"
       width="1"
       height="1"
       x="2"
       id="rect1424" />
    <rect
       y="28"
       width="1"
       height="1"
       x="4"
       id="rect1426" />
    <rect
       y="28"
       width="1"
       height="1"
       x="6"
       id="rect1428" />
    <rect
       height="1"
       x="10"
       y="28"
       width="1"
       id="rect1430" />
    <rect
       width="1"
       height="1"
       x="12"
       y="28"
       id="rect1432" />
    <rect
       y="28"
       width="1"
       height="1"
       x="25"
       id="rect1434" />
    <rect
       y="28"
       width="1"
       height="1"
       x="27"
       id="rect1436" />
    <rect
       x="3"
       y="29"
       width="1"
       height="1"
       id="rect1438" />
    <rect
       x="5"
       y="29"
       width="1"
       height="1"
       id="rect1440" />
    <rect
       x="7"
       y="29"
       width="1"
       height="1"
       id="rect1442" />
    <rect
       x="9"
       y="29"
       width="1"
       height="1"
       id="rect1444" />
    <rect
       width="1"
       height="1"
       x="14"
       y="29"
       id="rect1446" />
    <rect
       y="29"
       width="5"
       height="1"
       x="17"
       id="rect1448" />
    <rect
       height="1"
       x="23"
       y="29"
       width="2"
       id="rect1450" />
    <rect
       x="26"
       y="29"
       width="1"
       height="1"
       id="rect1452" />
    <rect
       x="4"
       y="30"
       width="1"
       height="1"
       id="rect1454" />
    <rect
       x="8"
       y="30"
       width="1"
       height="1"
       id="rect1456" />
    <rect
       x="10"
       y="30"
       width="3"
       height="1"
       id="rect1458" />
    <rect
       width="1"
       height="1"
       x="23"
       y="30"
       id="rect1460" />
    <rect
       x="25"
       y="30"
       width="1"
       height="1"
       id="rect1462" />
    <rect
       x="9"
       y="31"
       width="1"
       height="1"
       id="rect1464" />
    <rect
       x="13"
       y="31"
       width="10"
       height="1"
       id="rect1466" />
    <rect
       x="18"
       y="13"
       width="1"
       height="1"
       id="rect3366" />
    <rect
       height="1"
       x="19"
       y="14"
       width="1"
       id="rect3368" />
    <rect
       width="1"
       height="1"
       x="19"
       y="24"
       id="rect4369" />
    <rect
       x="18"
       y="23"
       width="1"
       height="1"
       id="rect4371" />
  </g>
</svg>
