<?xml version="1.0" encoding="UTF-8"?><svg baseProfile="tiny" viewBox="0 0 32 32" width="32px" height="32px" xmlns="http://www.w3.org/2000/svg" version="1.2"><g fill="#ebdbb2"><rect width="2" height="1" x="8"/><rect x="26" width="3" height="1"/><rect height="1" x="7" y="1" width="1"/><rect x="10" y="1" width="2" height="1"/><rect width="2" height="1" x="17" y="1"/><rect width="2" height="1" x="24" y="1"/><rect y="1" width="1" height="2" x="29"/><rect y="2" width="2" height="1" x="5"/><rect x="8" y="2" width="2" height="1"/><rect y="2" width="1" height="1" x="12"/><rect height="1" x="16" y="2" width="1"/><rect x="19" y="2" width="1" height="1"/><rect x="23" y="2" width="1" height="1"/><rect y="3" width="1" height="2" x="4"/><rect width="1" height="1" x="7" y="3"/><rect x="10" y="3" width="2" height="1"/><rect height="1" x="13" y="3" width="1"/><rect height="1" x="15" y="3" width="1"/><rect y="3" width="2" height="1" x="17"/><rect y="3" width="1" height="1" x="20"/><rect x="22" y="3" width="1" height="1"/><rect height="6" x="24" y="3" width="2"/><rect y="3" width="1" height="2" x="28"/><rect height="1" x="30" y="3" width="1"/><rect y="4" width="2" height="1" x="8"/><rect y="4" width="1" height="2" x="12"/><rect y="4" width="1" height="1" x="14"/><rect x="16" y="4" width="1" height="1"/><rect height="1" x="19" y="4" width="1"/><rect x="21" y="4" width="1" height="1"/><rect y="4" width="3" height="5" x="23"/><rect x="27" y="4" width="3" height="1"/><rect y="4" width="1" height="1" x="31"/><rect x="3" y="5" width="1" height="2"/><rect x="5" y="5" width="1" height="2"/><rect width="1" height="1" x="10" y="5"/><rect width="1" height="2" x="15" y="5"/><rect width="1" height="1" x="20" y="5"/><rect y="5" width="5" height="3" x="22"/><rect x="30" y="5" width="1" height="1"/><rect x="6" y="6" width="1" height="1"/><rect x="9" y="6" width="1" height="1"/><rect y="6" width="1" height="1" x="11"/><rect x="13" y="6" width="1" height="1"/><rect width="1" height="1" x="17" y="6"/><rect x="19" y="6" width="1" height="1"/><rect x="29" y="6" width="1" height="3"/><rect y="7" width="1" height="1" x="4"/><rect width="1" height="1" x="8" y="7"/><rect x="10" y="7" width="1" height="1"/><rect x="12" y="7" width="1" height="1"/><rect x="14" y="7" width="1" height="1"/><rect y="7" width="1" height="1" x="16"/><rect y="7" width="1" height="1" x="18"/><rect x="20" y="7" width="1" height="1"/><rect x="3" y="8" width="1" height="1"/><rect y="8" width="1" height="1" x="5"/><rect x="7" y="8" width="1" height="1"/><rect width="1" height="1" x="9" y="8"/><rect height="1" x="11" y="8" width="1"/><rect width="1" height="1" x="13" y="8"/><rect x="15" y="8" width="1" height="1"/><rect x="17" y="8" width="1" height="1"/><rect x="19" y="8" width="1" height="1"/><rect width="4" height="1" x="22" y="8"/><rect height="2" x="27" y="8" width="1"/><rect x="2" y="9" width="1" height="1"/><rect x="4" y="9" width="1" height="1"/><rect width="1" height="1" x="6" y="9"/><rect width="1" height="1" x="8" y="9"/><rect height="1" x="10" y="9" width="1"/><rect y="9" width="1" height="1" x="12"/><rect width="1" height="1" x="14" y="9"/><rect x="16" y="9" width="1" height="1"/><rect x="18" y="9" width="1" height="1"/><rect x="20" y="9" width="1" height="1"/><rect x="23" y="9" width="1" height="1"/><rect x="25" y="9" width="1" height="1"/><rect width="1" height="2" x="28" y="9"/><rect width="1" height="3" x="30" y="9"/><rect height="3" x="1" y="10" width="1"/><rect height="1" x="3" y="10" width="1"/><rect width="1" height="1" x="5" y="10"/><rect width="1" height="1" x="7" y="10"/><rect x="9" y="10" width="1" height="1"/><rect width="1" height="1" x="11" y="10"/><rect y="10" width="1" height="1" x="13"/><rect x="15" y="10" width="1" height="1"/><rect x="17" y="10" width="1" height="1"/><rect height="1" x="19" y="10" width="1"/><rect width="1" height="1" x="21" y="10"/><rect y="10" width="1" height="1" x="26"/><rect x="4" y="11" width="1" height="1"/><rect width="1" height="1" x="6" y="11"/><rect x="8" y="11" width="1" height="1"/><rect x="10" y="11" width="1" height="1"/><rect x="14" y="11" width="1" height="1"/><rect x="16" y="11" width="1" height="1"/><rect y="11" width="1" height="1" x="18"/><rect x="20" y="11" width="1" height="1"/><rect x="22" y="11" width="1" height="1"/><rect y="11" width="1" height="1" x="24"/><rect width="1" height="2" x="27" y="11"/><rect x="3" y="12" width="1" height="1"/><rect x="5" y="12" width="1" height="1"/><rect width="1" height="1" x="7" y="12"/><rect height="1" x="11" y="12" width="3"/><rect height="1" x="17" y="12" width="1"/><rect height="1" x="19" y="12" width="1"/><rect height="1" x="21" y="12" width="1"/><rect x="23" y="12" width="1" height="1"/><rect x="25" y="12" width="1" height="1"/><rect x="29" y="12" width="1" height="1"/><rect y="12" width="1" height="5" x="31"/><rect y="13" width="1" height="3"/><rect height="1" x="2" y="13" width="1"/><rect x="4" y="13" width="1" height="1"/><rect height="1" x="6" y="13" width="1"/><rect y="13" width="1" height="5" x="11"/><rect x="13" y="13" width="2" height="1"/><rect x="20" y="13" width="1" height="1"/><rect width="1" height="1" x="22" y="13"/><rect y="13" width="1" height="1" x="24"/><rect height="1" x="26" y="13" width="1"/><rect y="13" width="1" height="1" x="28"/><rect x="3" y="14" width="1" height="1"/><rect height="1" x="5" y="14" width="1"/><rect x="12" y="14" width="2" height="1"/><rect width="1" height="4" x="17" y="14"/><rect x="21" y="14" width="1" height="1"/><rect x="23" y="14" width="1" height="1"/><rect x="25" y="14" width="1" height="1"/><rect y="14" width="1" height="1" x="27"/><rect x="29" y="14" width="1" height="1"/><rect x="2" y="15" width="1" height="1"/><rect width="1" height="1" x="4" y="15"/><rect x="6" y="15" width="1" height="1"/><rect x="8" y="15" width="1" height="1"/><rect x="13" y="15" width="2" height="1"/><rect height="1" x="18" y="15" width="1"/><rect width="1" height="1" x="20" y="15"/><rect x="22" y="15" width="1" height="1"/><rect y="15" width="1" height="1" x="24"/><rect y="15" width="1" height="1" x="26"/><rect x="28" y="15" width="1" height="1"/><rect x="1" y="16" width="1" height="2"/><rect x="3" y="16" width="1" height="2"/><rect x="5" y="16" width="1" height="1"/><rect x="7" y="16" width="1" height="1"/><rect width="2" height="1" x="12" y="16"/><rect height="1" x="21" y="16" width="1"/><rect height="1" x="23" y="16" width="1"/><rect x="25" y="16" width="1" height="1"/><rect x="27" y="16" width="1" height="1"/><rect x="29" y="16" width="1" height="1"/><rect width="1" height="1" x="8" y="17"/><rect width="1" height="1" x="18" y="17"/><rect x="20" y="17" width="1" height="1"/><rect x="22" y="17" width="1" height="1"/><rect x="24" y="17" width="1" height="1"/><rect x="26" y="17" width="1" height="1"/><rect x="28" y="17" width="1" height="1"/><rect x="30" y="17" width="1" height="5"/><rect x="2" y="18" width="1" height="3"/><rect height="1" x="4" y="18" width="1"/><rect width="1" height="1" x="6" y="18"/><rect x="12" y="18" width="2" height="1"/><rect x="21" y="18" width="1" height="1"/><rect height="1" x="23" y="18" width="1"/><rect height="1" x="25" y="18" width="1"/><rect x="27" y="18" width="1" height="1"/><rect y="19" width="1" height="1" x="5"/><rect x="7" y="19" width="1" height="1"/><rect height="1" x="9" y="19" width="2"/><rect height="1" x="12" y="19" width="1"/><rect x="14" y="19" width="3" height="2"/><rect y="19" width="1" height="1" x="18"/><rect height="1" x="20" y="19" width="1"/><rect x="22" y="19" width="1" height="1"/><rect y="19" width="1" height="1" x="24"/><rect x="26" y="19" width="1" height="1"/><rect width="1" height="1" x="28" y="19"/><rect x="4" y="20" width="1" height="1"/><rect x="13" y="20" width="4" height="1"/><rect height="1" x="19" y="20" width="1"/><rect x="21" y="20" width="1" height="1"/><rect height="1" x="23" y="20" width="1"/><rect height="1" x="25" y="20" width="1"/><rect x="27" y="20" width="1" height="1"/><rect x="1" y="21" width="1" height="3"/><rect height="1" x="3" y="21" width="1"/><rect y="21" width="1" height="5" x="11"/><rect x="18" y="21" width="1" height="1"/><rect height="1" x="20" y="21" width="1"/><rect height="1" x="22" y="21" width="1"/><rect width="1" height="1" x="24" y="21"/><rect width="1" height="1" x="26" y="21"/><rect x="28" y="21" width="1" height="1"/><rect y="22" width="1" height="1" x="4"/><rect x="10" y="22" width="5" height="1"/><rect height="1" x="16" y="22" width="2"/><rect width="1" height="1" x="19" y="22"/><rect height="1" x="21" y="22" width="1"/><rect width="1" height="1" x="23" y="22"/><rect x="25" y="22" width="1" height="1"/><rect x="27" y="22" width="1" height="1"/><rect x="29" y="22" width="1" height="1"/><rect x="31" y="22" width="1" height="3"/><rect y="23" width="1" height="1" x="3"/><rect height="1" x="5" y="23" width="9"/><rect x="15" y="23" width="1" height="4"/><rect width="1" height="4" x="17" y="23"/><rect x="20" y="23" width="1" height="1"/><rect x="22" y="23" width="1" height="1"/><rect x="24" y="23" width="1" height="1"/><rect x="26" y="23" width="1" height="1"/><rect x="28" y="23" width="1" height="1"/><rect y="24" width="1" height="2"/><rect height="1" x="2" y="24" width="1"/><rect height="1" x="4" y="24" width="1"/><rect width="4" height="1" x="6" y="24"/><rect x="12" y="24" width="7" height="2"/><rect x="21" y="24" width="1" height="1"/><rect x="23" y="24" width="1" height="1"/><rect height="1" x="25" y="24" width="1"/><rect x="27" y="24" width="1" height="2"/><rect height="1" x="29" y="24" width="1"/><rect x="3" y="25" width="1" height="1"/><rect x="5" y="25" width="1" height="1"/><rect x="7" y="25" width="1" height="1"/><rect height="1" x="10" y="25" width="10"/><rect x="22" y="25" width="1" height="1"/><rect height="1" x="24" y="25" width="1"/><rect width="1" height="1" x="28" y="25"/><rect width="1" height="1" x="30" y="25"/><rect width="1" height="2" x="1" y="26"/><rect x="4" y="26" width="1" height="1"/><rect height="1" x="6" y="26" width="1"/><rect x="14" y="26" width="6" height="1"/><rect x="21" y="26" width="1" height="1"/><rect x="23" y="26" width="1" height="1"/><rect x="26" y="26" width="1" height="2"/><rect height="1" x="29" y="26" width="1"/><rect width="1" height="1" x="3" y="27"/><rect x="7" y="27" width="1" height="1"/><rect y="27" width="1" height="1" x="9"/><rect x="11" y="27" width="1" height="1"/><rect x="22" y="27" width="1" height="1"/><rect x="24" y="27" width="1" height="1"/><rect y="28" width="1" height="1" x="2"/><rect y="28" width="1" height="1" x="4"/><rect y="28" width="1" height="1" x="6"/><rect height="1" x="10" y="28" width="1"/><rect width="1" height="1" x="12" y="28"/><rect y="28" width="1" height="1" x="25"/><rect y="28" width="1" height="1" x="27"/><rect x="3" y="29" width="1" height="1"/><rect x="5" y="29" width="1" height="1"/><rect x="7" y="29" width="1" height="1"/><rect x="9" y="29" width="1" height="1"/><rect width="1" height="1" x="14" y="29"/><rect y="29" width="5" height="1" x="17"/><rect height="1" x="23" y="29" width="2"/><rect x="26" y="29" width="1" height="1"/><rect x="4" y="30" width="1" height="1"/><rect x="8" y="30" width="1" height="1"/><rect x="10" y="30" width="3" height="1"/><rect width="1" height="1" x="23" y="30"/><rect x="25" y="30" width="1" height="1"/><rect x="9" y="31" width="1" height="1"/><rect x="13" y="31" width="10" height="1"/></g></svg>