<?xml version="1.0" encoding="UTF-8"?><svg width="32px" height="32px" xmlns="http://www.w3.org/2000/svg" version="1.2" baseProfile="tiny" viewBox="0 0 32 32"><g fill="#ebdbb2"><rect width="5" height="1" x="15" y="3"/><rect width="2" height="1" x="13" y="4"/><rect height="1" x="20" y="4" width="2"/><rect x="11" y="5" width="2" height="1"/><rect x="15" y="5" width="1" height="6"/><rect x="17" y="5" width="3" height="1"/><rect x="22" y="5" width="1" height="1"/><rect height="1" x="9" y="6" width="2"/><rect x="13" y="6" width="1" height="6"/><rect y="6" width="2" height="1" x="16"/><rect width="3" height="1" x="19" y="6"/><rect width="1" height="1" x="23" y="6"/><rect y="7" width="2" height="1" x="7"/><rect y="7" width="1" height="4" x="11"/><rect width="2" height="1" x="14" y="7"/><rect x="17" y="7" width="3" height="1"/><rect y="7" width="2" height="1" x="21"/><rect width="1" height="1" x="24" y="7"/><rect x="29" y="7" width="1" height="1"/><rect x="5" y="8" width="2" height="1"/><rect x="9" y="8" width="1" height="3"/><rect width="2" height="1" x="12" y="8"/><rect width="2" height="1" x="16" y="8"/><rect height="1" x="19" y="8" width="3"/><rect height="11" x="23" y="8" width="1"/><rect y="8" width="1" height="1" x="25"/><rect y="8" width="2" height="1" x="27"/><rect x="30" y="8" width="1" height="1"/><rect x="3" y="9" width="2" height="1"/><rect x="7" y="9" width="1" height="4"/><rect width="2" height="1" x="10" y="9"/><rect x="14" y="9" width="2" height="1"/><rect y="9" width="3" height="1" x="17"/><rect y="9" width="3" height="1" x="21"/><rect y="9" width="1" height="1" x="26"/><rect width="1" height="12" x="29" y="9"/><rect y="9" width="1" height="13" x="31"/><rect width="2" height="1" x="1" y="10"/><rect width="1" height="6" x="5" y="10"/><rect height="1" x="8" y="10" width="2"/><rect x="12" y="10" width="2" height="1"/><rect width="3" height="1" x="19" y="10"/><rect height="1" x="24" y="10" width="2"/><rect height="1" x="27" y="10" width="3"/><rect width="1" height="4" y="11"/><rect x="3" y="11" width="5" height="1"/><rect width="2" height="1" x="16" y="11"/><rect width="1" height="1" x="19" y="11"/><rect x="21" y="11" width="3" height="1"/><rect y="11" width="3" height="1" x="25"/><rect x="2" y="12" width="2" height="1"/><rect width="1" height="1" x="9" y="12"/><rect width="1" height="1" x="11" y="12"/><rect y="12" width="2" height="1" x="14"/><rect height="1" x="18" y="12" width="1"/><rect x="21" y="12" width="1" height="2"/><rect width="2" height="1" x="24" y="12"/><rect x="27" y="12" width="3" height="1"/><rect x="3" y="13" width="4" height="1"/><rect y="13" width="1" height="1" x="8"/><rect width="1" height="1" x="10" y="13"/><rect width="1" height="1" x="12" y="13"/><rect x="15" y="13" width="1" height="4"/><rect width="1" height="4" x="19" y="13"/><rect y="13" width="2" height="1" x="22"/><rect height="1" x="25" y="13" width="3"/><rect width="2" height="1" x="2" y="14"/><rect height="1" x="7" y="14" width="1"/><rect x="9" y="14" width="1" height="1"/><rect height="1" x="11" y="14" width="1"/><rect x="13" y="14" width="1" height="1"/><rect y="14" width="1" height="1" x="20"/><rect x="24" y="14" width="2" height="1"/><rect x="27" y="14" width="3" height="1"/><rect width="1" height="1" x="1" y="15"/><rect x="3" y="15" width="3" height="1"/><rect width="1" height="1" x="8" y="15"/><rect y="15" width="1" height="1" x="10"/><rect y="15" width="1" height="1" x="12"/><rect y="15" width="4" height="1" x="16"/><rect y="15" width="2" height="1" x="22"/><rect width="3" height="1" x="25" y="15"/><rect x="2" y="16" width="1" height="1"/><rect x="7" y="16" width="1" height="1"/><rect width="1" height="1" x="9" y="16"/><rect height="1" x="11" y="16" width="1"/><rect x="14" y="16" width="2" height="1"/><rect x="21" y="16" width="1" height="2"/><rect y="16" width="2" height="1" x="24"/><rect height="1" x="27" y="16" width="3"/><rect y="17" width="3" height="1" x="3"/><rect x="8" y="17" width="1" height="1"/><rect x="10" y="17" width="1" height="1"/><rect width="1" height="1" x="12" y="17"/><rect x="16" y="17" width="1" height="1"/><rect y="17" width="1" height="1" x="18"/><rect x="22" y="17" width="2" height="1"/><rect x="25" y="17" width="3" height="1"/><rect width="1" height="3" x="5" y="18"/><rect width="1" height="1" x="7" y="18"/><rect y="18" width="1" height="1" x="9"/><rect width="1" height="1" x="11" y="18"/><rect height="1" x="13" y="18" width="1"/><rect y="18" width="1" height="1" x="15"/><rect x="17" y="18" width="1" height="1"/><rect y="18" width="1" height="1" x="19"/><rect y="18" width="2" height="1" x="24"/><rect x="27" y="18" width="3" height="1"/><rect x="8" y="19" width="1" height="1"/><rect width="1" height="1" x="10" y="19"/><rect width="1" height="1" x="12" y="19"/><rect x="14" y="19" width="1" height="1"/><rect height="1" x="16" y="19" width="1"/><rect width="1" height="1" x="18" y="19"/><rect width="2" height="1" x="21" y="19"/><rect x="25" y="19" width="3" height="1"/><rect x="7" y="20" width="1" height="1"/><rect y="20" width="1" height="1" x="9"/><rect x="11" y="20" width="1" height="1"/><rect width="1" height="1" x="13" y="20"/><rect x="15" y="20" width="1" height="1"/><rect x="17" y="20" width="1" height="1"/><rect x="19" y="20" width="1" height="1"/><rect x="21" y="20" width="1" height="3"/><rect y="20" width="2" height="1" x="23"/><rect y="20" width="2" height="1" x="28"/><rect x="6" y="21" width="1" height="6"/><rect width="1" height="1" x="8" y="21"/><rect x="10" y="21" width="1" height="1"/><rect width="1" height="1" x="12" y="21"/><rect x="14" y="21" width="1" height="1"/><rect x="16" y="21" width="1" height="1"/><rect y="21" width="1" height="1" x="18"/><rect x="25" y="21" width="3" height="1"/><rect width="1" height="1" x="9" y="22"/><rect y="22" width="1" height="1" x="11"/><rect y="22" width="1" height="1" x="13"/><rect y="22" width="1" height="1" x="15"/><rect x="17" y="22" width="1" height="1"/><rect x="19" y="22" width="1" height="1"/><rect x="28" y="22" width="3" height="1"/><rect y="23" width="1" height="1" x="8"/><rect x="10" y="23" width="1" height="1"/><rect x="12" y="23" width="1" height="1"/><rect x="14" y="23" width="1" height="1"/><rect height="1" x="16" y="23" width="1"/><rect x="18" y="23" width="1" height="1"/><rect width="1" height="1" x="20" y="23"/><rect x="9" y="24" width="1" height="1"/><rect x="11" y="24" width="1" height="1"/><rect width="1" height="1" x="13" y="24"/><rect y="24" width="1" height="1" x="15"/><rect y="24" width="1" height="1" x="19"/><rect y="25" width="1" height="1" x="8"/><rect x="10" y="25" width="1" height="1"/><rect height="1" x="17" y="25" width="2"/><rect x="12" y="26" width="5" height="1"/><rect y="27" width="5" height="1" x="7"/></g></svg>