<?xml version="1.0" encoding="UTF-8" standalone="no"?>
<!DOCTYPE svg PUBLIC "-//W3C//DTD SVG 1.1//EN" "http://www.w3.org/Graphics/SVG/1.1/DTD/svg11.dtd">
<svg width="100%" height="100%" viewBox="0 0 2000 2000" version="1.1" xmlns="http://www.w3.org/2000/svg" xmlns:xlink="http://www.w3.org/1999/xlink" xml:space="preserve" xmlns:serif="http://www.serif.com/" style="fill-rule:evenodd;clip-rule:evenodd;stroke-linejoin:round;stroke-miterlimit:2;">
    <g transform="matrix(0.925926,0,0,0.925926,2.27374e-13,6.6791e-13)">
        <rect x="0" y="0" width="2160" height="2160" style="fill:rgb(0,0,41);"/>
    </g>
    <g transform="matrix(201.302,88.3477,-88.3477,201.302,1586.3,1105.08)">
        <path d="M0.771,-0.288L0.771,-0.337L0.521,-0.337L0.521,-0.288L0.771,-0.288ZM0.063,-0.337L0.063,-0.288L0.312,-0.288L0.312,-0.337L0.063,-0.337ZM0.392,-0.646L0.392,-0.417L0.441,-0.417L0.441,-0.646L0.392,-0.646ZM0.441,-0L0.441,-0.208L0.392,-0.208L0.392,-0L0.441,-0Z" style="fill:rgb(0,255,0);fill-rule:nonzero;"/>
    </g>
    <g transform="matrix(253.787,-159.009,159.009,253.787,136.298,1237.19)">
        <path d="M0.771,-0.288L0.771,-0.337L0.521,-0.337L0.521,-0.288L0.771,-0.288ZM0.063,-0.337L0.063,-0.288L0.312,-0.288L0.312,-0.337L0.063,-0.337ZM0.392,-0.646L0.392,-0.417L0.441,-0.417L0.441,-0.646L0.392,-0.646ZM0.441,-0L0.441,-0.208L0.392,-0.208L0.392,-0L0.441,-0Z" style="fill:rgb(0,255,204);fill-rule:nonzero;"/>
    </g>
    <g transform="matrix(177.184,128.145,-120.634,179.357,502.954,1208.1)">
        <path d="M0.135,-0.37C0.118,-0.333 0.11,-0.293 0.11,-0.252C0.11,-0.085 0.252,0.046 0.417,0.046C0.582,0.046 0.723,-0.084 0.723,-0.252C0.723,-0.293 0.714,-0.333 0.697,-0.37C0.755,-0.394 0.796,-0.449 0.796,-0.514C0.796,-0.6 0.723,-0.671 0.635,-0.671C0.556,-0.671 0.491,-0.615 0.477,-0.543C0.457,-0.547 0.437,-0.549 0.417,-0.549C0.396,-0.549 0.376,-0.547 0.356,-0.543C0.342,-0.615 0.277,-0.671 0.198,-0.671C0.11,-0.671 0.037,-0.6 0.037,-0.514C0.037,-0.449 0.078,-0.394 0.135,-0.37ZM0.185,-0.358L0.198,-0.358C0.279,-0.358 0.346,-0.417 0.357,-0.492C0.377,-0.497 0.397,-0.499 0.417,-0.499C0.437,-0.499 0.456,-0.497 0.476,-0.492C0.487,-0.417 0.554,-0.358 0.635,-0.358L0.648,-0.358C0.664,-0.325 0.673,-0.289 0.673,-0.252C0.673,-0.112 0.555,-0.004 0.417,-0.004C0.279,-0.004 0.16,-0.111 0.16,-0.252C0.16,-0.289 0.169,-0.325 0.185,-0.358ZM0.198,-0.621C0.259,-0.621 0.308,-0.573 0.308,-0.514C0.308,-0.455 0.259,-0.408 0.198,-0.408C0.137,-0.408 0.087,-0.455 0.087,-0.514C0.087,-0.573 0.137,-0.621 0.198,-0.621ZM0.635,-0.621C0.696,-0.621 0.746,-0.573 0.746,-0.514C0.746,-0.455 0.696,-0.408 0.635,-0.408C0.574,-0.408 0.525,-0.455 0.525,-0.514C0.525,-0.573 0.574,-0.621 0.635,-0.621ZM0.365,-0.135C0.365,-0.106 0.388,-0.083 0.417,-0.083C0.446,-0.083 0.469,-0.106 0.469,-0.135C0.469,-0.163 0.446,-0.188 0.417,-0.188C0.388,-0.188 0.365,-0.163 0.365,-0.135Z" style="fill:rgb(0,255,255);fill-rule:nonzero;"/>
    </g>
    <g transform="matrix(236.569,92.5442,-91.6038,238.998,1112.93,1586.13)">
        <path d="M0.771,-0.288L0.771,-0.337L0.521,-0.337L0.521,-0.288L0.771,-0.288ZM0.063,-0.337L0.063,-0.288L0.312,-0.288L0.312,-0.337L0.063,-0.337ZM0.392,-0.646L0.392,-0.417L0.441,-0.417L0.441,-0.646L0.392,-0.646ZM0.441,-0L0.441,-0.208L0.392,-0.208L0.392,-0L0.441,-0Z" style="fill:rgb(255,255,0);fill-rule:nonzero;"/>
    </g>
    <g transform="matrix(189.107,-132.128,132.128,189.107,416.718,302.345)">
        <path d="M0.13,-0.356C0.117,-0.323 0.11,-0.288 0.11,-0.252C0.11,-0.085 0.252,0.046 0.417,0.046C0.582,0.046 0.723,-0.084 0.723,-0.252C0.723,-0.288 0.716,-0.323 0.703,-0.356C0.758,-0.384 0.796,-0.44 0.796,-0.504C0.796,-0.596 0.719,-0.671 0.625,-0.671C0.531,-0.671 0.454,-0.596 0.454,-0.504C0.454,-0.412 0.531,-0.338 0.625,-0.338C0.636,-0.338 0.646,-0.339 0.656,-0.341C0.667,-0.313 0.673,-0.283 0.673,-0.252C0.673,-0.112 0.555,-0.004 0.417,-0.004C0.279,-0.004 0.16,-0.111 0.16,-0.252C0.16,-0.283 0.166,-0.313 0.177,-0.341C0.187,-0.339 0.197,-0.338 0.208,-0.338C0.302,-0.338 0.379,-0.412 0.379,-0.504C0.379,-0.596 0.302,-0.671 0.208,-0.671C0.114,-0.671 0.037,-0.596 0.037,-0.504C0.037,-0.44 0.075,-0.384 0.13,-0.356ZM0.504,-0.504C0.504,-0.568 0.558,-0.621 0.625,-0.621C0.692,-0.621 0.746,-0.568 0.746,-0.504C0.746,-0.44 0.692,-0.388 0.625,-0.388C0.558,-0.388 0.504,-0.44 0.504,-0.504ZM0.087,-0.504C0.087,-0.568 0.141,-0.621 0.208,-0.621C0.275,-0.621 0.329,-0.568 0.329,-0.504C0.329,-0.44 0.275,-0.388 0.208,-0.388C0.141,-0.388 0.087,-0.44 0.087,-0.504Z" style="fill:rgb(255,0,0);fill-rule:nonzero;"/>
    </g>
    <g transform="matrix(86.6651,165.817,-168.823,85.1216,1093.69,1089.9)">
        <path d="M0.13,-0.356C0.117,-0.323 0.11,-0.288 0.11,-0.252C0.11,-0.085 0.252,0.046 0.417,0.046C0.582,0.046 0.723,-0.084 0.723,-0.252C0.723,-0.288 0.716,-0.323 0.703,-0.356C0.758,-0.384 0.796,-0.44 0.796,-0.504C0.796,-0.596 0.719,-0.671 0.625,-0.671C0.531,-0.671 0.454,-0.596 0.454,-0.504C0.454,-0.412 0.531,-0.338 0.625,-0.338C0.636,-0.338 0.646,-0.339 0.656,-0.341C0.667,-0.313 0.673,-0.283 0.673,-0.252C0.673,-0.112 0.555,-0.004 0.417,-0.004C0.279,-0.004 0.16,-0.111 0.16,-0.252C0.16,-0.283 0.166,-0.313 0.177,-0.341C0.187,-0.339 0.197,-0.338 0.208,-0.338C0.302,-0.338 0.379,-0.412 0.379,-0.504C0.379,-0.596 0.302,-0.671 0.208,-0.671C0.114,-0.671 0.037,-0.596 0.037,-0.504C0.037,-0.44 0.075,-0.384 0.13,-0.356ZM0.504,-0.504C0.504,-0.568 0.558,-0.621 0.625,-0.621C0.692,-0.621 0.746,-0.568 0.746,-0.504C0.746,-0.44 0.692,-0.388 0.625,-0.388C0.558,-0.388 0.504,-0.44 0.504,-0.504ZM0.087,-0.504C0.087,-0.568 0.141,-0.621 0.208,-0.621C0.275,-0.621 0.329,-0.568 0.329,-0.504C0.329,-0.44 0.275,-0.388 0.208,-0.388C0.141,-0.388 0.087,-0.44 0.087,-0.504Z" style="fill:rgb(255,0,255);fill-rule:nonzero;"/>
    </g>
    <g transform="matrix(-106.728,-143.816,140.316,-109.39,906.649,1539.46)">
        <path d="M0.13,-0.356C0.117,-0.323 0.11,-0.288 0.11,-0.252C0.11,-0.085 0.252,0.046 0.417,0.046C0.582,0.046 0.723,-0.084 0.723,-0.252C0.723,-0.288 0.716,-0.323 0.703,-0.356C0.758,-0.384 0.796,-0.44 0.796,-0.504C0.796,-0.596 0.719,-0.671 0.625,-0.671C0.531,-0.671 0.454,-0.596 0.454,-0.504C0.454,-0.412 0.531,-0.338 0.625,-0.338C0.636,-0.338 0.646,-0.339 0.656,-0.341C0.667,-0.313 0.673,-0.283 0.673,-0.252C0.673,-0.112 0.555,-0.004 0.417,-0.004C0.279,-0.004 0.16,-0.111 0.16,-0.252C0.16,-0.283 0.166,-0.313 0.177,-0.341C0.187,-0.339 0.197,-0.338 0.208,-0.338C0.302,-0.338 0.379,-0.412 0.379,-0.504C0.379,-0.596 0.302,-0.671 0.208,-0.671C0.114,-0.671 0.037,-0.596 0.037,-0.504C0.037,-0.44 0.075,-0.384 0.13,-0.356ZM0.504,-0.504C0.504,-0.568 0.558,-0.621 0.625,-0.621C0.692,-0.621 0.746,-0.568 0.746,-0.504C0.746,-0.44 0.692,-0.388 0.625,-0.388C0.558,-0.388 0.504,-0.44 0.504,-0.504ZM0.087,-0.504C0.087,-0.568 0.141,-0.621 0.208,-0.621C0.275,-0.621 0.329,-0.568 0.329,-0.504C0.329,-0.44 0.275,-0.388 0.208,-0.388C0.141,-0.388 0.087,-0.44 0.087,-0.504Z" style="fill:rgb(0,255,0);fill-rule:nonzero;"/>
    </g>
    <g transform="matrix(-117.452,-154.415,154.415,-117.452,1774.17,1684.75)">
        <path d="M0.13,-0.356C0.117,-0.323 0.11,-0.288 0.11,-0.252C0.11,-0.085 0.252,0.046 0.417,0.046C0.582,0.046 0.723,-0.084 0.723,-0.252C0.723,-0.288 0.716,-0.323 0.703,-0.356C0.758,-0.384 0.796,-0.44 0.796,-0.504C0.796,-0.596 0.719,-0.671 0.625,-0.671C0.531,-0.671 0.454,-0.596 0.454,-0.504C0.454,-0.412 0.531,-0.338 0.625,-0.338C0.636,-0.338 0.646,-0.339 0.656,-0.341C0.667,-0.313 0.673,-0.283 0.673,-0.252C0.673,-0.112 0.555,-0.004 0.417,-0.004C0.279,-0.004 0.16,-0.111 0.16,-0.252C0.16,-0.283 0.166,-0.313 0.177,-0.341C0.187,-0.339 0.197,-0.338 0.208,-0.338C0.302,-0.338 0.379,-0.412 0.379,-0.504C0.379,-0.596 0.302,-0.671 0.208,-0.671C0.114,-0.671 0.037,-0.596 0.037,-0.504C0.037,-0.44 0.075,-0.384 0.13,-0.356ZM0.504,-0.504C0.504,-0.568 0.558,-0.621 0.625,-0.621C0.692,-0.621 0.746,-0.568 0.746,-0.504C0.746,-0.44 0.692,-0.388 0.625,-0.388C0.558,-0.388 0.504,-0.44 0.504,-0.504ZM0.087,-0.504C0.087,-0.568 0.141,-0.621 0.208,-0.621C0.275,-0.621 0.329,-0.568 0.329,-0.504C0.329,-0.44 0.275,-0.388 0.208,-0.388C0.141,-0.388 0.087,-0.44 0.087,-0.504Z" style="fill:rgb(0,255,0);fill-rule:nonzero;"/>
    </g>
    <g transform="matrix(-57.7026,245.17,-244.226,-73.8765,418.303,813.65)">
        <path d="M0.13,-0.356C0.117,-0.323 0.11,-0.288 0.11,-0.252C0.11,-0.085 0.252,0.046 0.417,0.046C0.582,0.046 0.723,-0.084 0.723,-0.252C0.723,-0.288 0.716,-0.323 0.703,-0.356C0.758,-0.384 0.796,-0.44 0.796,-0.504C0.796,-0.596 0.719,-0.671 0.625,-0.671C0.531,-0.671 0.454,-0.596 0.454,-0.504C0.454,-0.412 0.531,-0.338 0.625,-0.338C0.636,-0.338 0.646,-0.339 0.656,-0.341C0.667,-0.313 0.673,-0.283 0.673,-0.252C0.673,-0.112 0.555,-0.004 0.417,-0.004C0.279,-0.004 0.16,-0.111 0.16,-0.252C0.16,-0.283 0.166,-0.313 0.177,-0.341C0.187,-0.339 0.197,-0.338 0.208,-0.338C0.302,-0.338 0.379,-0.412 0.379,-0.504C0.379,-0.596 0.302,-0.671 0.208,-0.671C0.114,-0.671 0.037,-0.596 0.037,-0.504C0.037,-0.44 0.075,-0.384 0.13,-0.356ZM0.504,-0.504C0.504,-0.568 0.558,-0.621 0.625,-0.621C0.692,-0.621 0.746,-0.568 0.746,-0.504C0.746,-0.44 0.692,-0.388 0.625,-0.388C0.558,-0.388 0.504,-0.44 0.504,-0.504ZM0.087,-0.504C0.087,-0.568 0.141,-0.621 0.208,-0.621C0.275,-0.621 0.329,-0.568 0.329,-0.504C0.329,-0.44 0.275,-0.388 0.208,-0.388C0.141,-0.388 0.087,-0.44 0.087,-0.504Z" style="fill:rgb(255,255,0);fill-rule:nonzero;"/>
    </g>
    <g transform="matrix(199.262,109.562,-109.562,199.262,1007.02,601.952)">
        <path d="M0.392,-0.292L0.441,-0.292L0.441,-0.562L0.392,-0.562L0.392,-0.292ZM0.771,-0.121L0.771,-0.171L0.521,-0.171L0.521,-0.121L0.771,-0.121ZM0.312,-0.121L0.312,-0.171L0.063,-0.171L0.063,-0.121L0.312,-0.121Z" style="fill:rgb(0,255,204);fill-rule:nonzero;"/>
    </g>
    <g transform="matrix(166.12,-93.745,93.8463,165.941,1305.45,693.263)">
        <path d="M0.146,-0.621L0.5,-0.621C0.62,-0.621 0.725,-0.543 0.725,-0.417C0.725,-0.297 0.648,-0.192 0.521,-0.192L0.496,-0.192L0.496,0.021L0.546,0.021L0.546,-0.143C0.685,-0.155 0.775,-0.274 0.775,-0.417C0.775,-0.568 0.648,-0.671 0.5,-0.671L0.146,-0.671L0.146,-0.621ZM0.357,-0.188L0.357,0.021L0.407,0.021L0.407,-0.188L0.357,-0.188ZM0.268,0.021L0.268,-0.188L0.218,-0.188L0.218,0.021L0.268,0.021ZM0.079,-0.188L0.079,0.021L0.129,0.021L0.129,-0.188L0.079,-0.188ZM0.469,-0.406C0.498,-0.406 0.521,-0.43 0.521,-0.458C0.521,-0.487 0.498,-0.51 0.469,-0.51C0.44,-0.51 0.417,-0.487 0.417,-0.458C0.417,-0.43 0.44,-0.406 0.469,-0.406ZM0.562,-0.458C0.562,-0.43 0.586,-0.406 0.614,-0.406C0.643,-0.406 0.666,-0.43 0.666,-0.458C0.666,-0.487 0.643,-0.51 0.614,-0.51C0.586,-0.51 0.562,-0.487 0.562,-0.458Z" style="fill:rgb(255,255,0);fill-rule:nonzero;"/>
    </g>
    <g transform="matrix(199.262,109.562,-109.562,199.262,915.594,1016.43)">
        <path d="M0.048,-0.323C0.048,-0.119 0.213,0.046 0.417,0.046C0.621,0.046 0.785,-0.12 0.785,-0.323C0.785,-0.525 0.62,-0.692 0.417,-0.692C0.214,-0.692 0.048,-0.526 0.048,-0.323ZM0.417,-0.642C0.593,-0.642 0.735,-0.498 0.735,-0.323C0.735,-0.148 0.593,-0.004 0.417,-0.004C0.241,-0.004 0.098,-0.147 0.098,-0.323C0.098,-0.499 0.241,-0.642 0.417,-0.642ZM0.236,-0.323C0.236,-0.221 0.315,-0.142 0.417,-0.142C0.517,-0.142 0.598,-0.223 0.598,-0.323C0.598,-0.423 0.517,-0.504 0.417,-0.504C0.316,-0.504 0.236,-0.424 0.236,-0.323ZM0.417,-0.454C0.489,-0.454 0.548,-0.395 0.548,-0.323C0.548,-0.251 0.489,-0.192 0.417,-0.192C0.345,-0.192 0.285,-0.251 0.285,-0.323C0.285,-0.395 0.345,-0.454 0.417,-0.454Z" style="fill:rgb(0,255,204);fill-rule:nonzero;"/>
    </g>
    <g transform="matrix(187.931,-60.7602,54.4198,209.826,1084.59,857.555)">
        <path d="M0.285,0.009C0.348,0.009 0.397,-0.033 0.423,-0.088C0.439,-0.064 0.458,-0.031 0.479,0.011L0.524,-0.011C0.481,-0.097 0.45,-0.143 0.419,-0.169C0.384,-0.198 0.35,-0.201 0.308,-0.201C0.234,-0.201 0.185,-0.154 0.185,-0.08C0.185,-0.02 0.229,0.009 0.285,0.009ZM0.306,-0.666L0.306,-0.292L0.356,-0.292L0.356,-0.666L0.306,-0.666ZM0.252,-0.13C0.264,-0.144 0.284,-0.151 0.308,-0.151L0.31,-0.151C0.346,-0.151 0.366,-0.148 0.387,-0.131C0.359,-0.051 0.307,-0.041 0.285,-0.041C0.268,-0.041 0.253,-0.045 0.245,-0.052C0.242,-0.054 0.235,-0.061 0.235,-0.08C0.235,-0.106 0.245,-0.123 0.252,-0.13Z" style="fill:rgb(127,255,42);fill-rule:nonzero;"/>
    </g>
    <g transform="matrix(201.114,115.337,-70.5189,225.65,1598.74,482.377)">
        <path d="M0.285,0.009C0.348,0.009 0.397,-0.033 0.423,-0.088C0.439,-0.064 0.458,-0.031 0.479,0.011L0.524,-0.011C0.481,-0.097 0.45,-0.143 0.419,-0.169C0.384,-0.198 0.35,-0.201 0.308,-0.201C0.234,-0.201 0.185,-0.154 0.185,-0.08C0.185,-0.02 0.229,0.009 0.285,0.009ZM0.306,-0.666L0.306,-0.292L0.356,-0.292L0.356,-0.666L0.306,-0.666ZM0.252,-0.13C0.264,-0.144 0.284,-0.151 0.308,-0.151L0.31,-0.151C0.346,-0.151 0.366,-0.148 0.387,-0.131C0.359,-0.051 0.307,-0.041 0.285,-0.041C0.268,-0.041 0.253,-0.045 0.245,-0.052C0.242,-0.054 0.235,-0.061 0.235,-0.08C0.235,-0.106 0.245,-0.123 0.252,-0.13Z" style="fill:rgb(0,255,255);fill-rule:nonzero;"/>
    </g>
    <g transform="matrix(27.4071,-225.739,225.739,27.4071,485.729,1601.72)">
        <path d="M0.392,-0.292L0.441,-0.292L0.441,-0.562L0.392,-0.562L0.392,-0.292ZM0.771,-0.121L0.771,-0.171L0.521,-0.171L0.521,-0.121L0.771,-0.121ZM0.312,-0.121L0.312,-0.171L0.063,-0.171L0.063,-0.121L0.312,-0.121Z" style="fill:rgb(0,255,102);fill-rule:nonzero;"/>
    </g>
    <g transform="matrix(227.284,-7.16916,7.16916,227.284,1236.38,461.549)">
        <path d="M0.392,-0.292L0.441,-0.292L0.441,-0.562L0.392,-0.562L0.392,-0.292ZM0.771,-0.121L0.771,-0.171L0.521,-0.171L0.521,-0.121L0.771,-0.121ZM0.312,-0.121L0.312,-0.171L0.063,-0.171L0.063,-0.121L0.312,-0.121Z" style="fill:rgb(127,42,255);fill-rule:nonzero;"/>
    </g>
    <g transform="matrix(-3.49443,192.339,-220.661,-3.25625,481.292,505.469)">
        <path d="M0.048,-0.323C0.048,-0.11 0.232,0.046 0.439,0.046C0.601,0.046 0.775,-0.063 0.775,-0.24C0.775,-0.417 0.601,-0.525 0.439,-0.525C0.326,-0.525 0.206,-0.446 0.206,-0.323C0.206,-0.201 0.324,-0.121 0.439,-0.121C0.514,-0.121 0.575,-0.179 0.575,-0.25C0.575,-0.322 0.514,-0.379 0.439,-0.379C0.426,-0.379 0.414,-0.368 0.414,-0.354C0.414,-0.34 0.426,-0.329 0.439,-0.329C0.487,-0.329 0.525,-0.294 0.525,-0.25C0.525,-0.206 0.487,-0.171 0.439,-0.171C0.338,-0.171 0.256,-0.239 0.256,-0.323C0.256,-0.407 0.338,-0.475 0.439,-0.475C0.597,-0.475 0.725,-0.37 0.725,-0.24C0.725,-0.11 0.597,-0.004 0.439,-0.004C0.26,-0.004 0.098,-0.137 0.098,-0.323C0.098,-0.508 0.26,-0.642 0.439,-0.642C0.555,-0.642 0.642,-0.624 0.716,-0.585C0.72,-0.583 0.724,-0.582 0.728,-0.582C0.74,-0.582 0.753,-0.592 0.753,-0.607C0.753,-0.616 0.748,-0.625 0.739,-0.629C0.658,-0.672 0.563,-0.692 0.439,-0.692C0.233,-0.692 0.048,-0.536 0.048,-0.323Z" style="fill:rgb(0,255,204);fill-rule:nonzero;"/>
    </g>
    <g transform="matrix(167.667,160.917,-196.031,157.784,109.898,555.696)">
        <path d="M0.754,0.025L0.754,-0.65L0.079,-0.65L0.079,0.025L0.754,0.025ZM0.129,-0.025L0.129,-0.6L0.704,-0.6L0.704,-0.025L0.129,-0.025ZM0.585,-0.144L0.585,-0.481L0.248,-0.481L0.248,-0.144L0.585,-0.144ZM0.294,-0.19L0.294,-0.435L0.539,-0.435L0.539,-0.19L0.294,-0.19Z" style="fill:rgb(255,255,0);fill-rule:nonzero;"/>
    </g>
    <g transform="matrix(-87.7875,176.652,-166.444,-97.2556,1238.4,1717.02)">
        <path d="M0.754,0.025L0.754,-0.65L0.079,-0.65L0.079,0.025L0.754,0.025ZM0.129,-0.025L0.129,-0.6L0.704,-0.6L0.704,-0.025L0.129,-0.025ZM0.585,-0.144L0.585,-0.481L0.248,-0.481L0.248,-0.144L0.585,-0.144ZM0.294,-0.19L0.294,-0.435L0.539,-0.435L0.539,-0.19L0.294,-0.19Z" style="fill:rgb(0,255,0);fill-rule:nonzero;"/>
    </g>
    <g transform="matrix(148.237,130.147,-136.681,135.943,497.618,1412.98)">
        <path d="M0.392,-0.708L0.392,-0.231L0.441,-0.231L0.441,-0.708L0.392,-0.708ZM0.249,-0.155L0.293,-0.178L0.085,-0.568L0.04,-0.545L0.249,-0.155ZM0.54,-0.178L0.585,-0.155L0.793,-0.545L0.749,-0.568L0.54,-0.178ZM0.417,0.021C0.446,0.021 0.469,-0.002 0.469,-0.031C0.469,-0.059 0.446,-0.083 0.417,-0.083C0.388,-0.083 0.365,-0.059 0.365,-0.031C0.365,-0.002 0.388,0.021 0.417,0.021Z" style="fill:rgb(255,0,0);fill-rule:nonzero;"/>
    </g>
    <g transform="matrix(79.119,151.433,-151.435,92.492,127.975,1710.17)">
        <path d="M0.754,0.025L0.754,-0.65L0.079,-0.65L0.079,0.025L0.754,0.025ZM0.129,-0.025L0.129,-0.6L0.704,-0.6L0.704,-0.025L0.129,-0.025ZM0.585,-0.144L0.585,-0.481L0.248,-0.481L0.248,-0.144L0.585,-0.144ZM0.294,-0.19L0.294,-0.435L0.539,-0.435L0.539,-0.19L0.294,-0.19Z" style="fill:rgb(255,0,0);fill-rule:nonzero;"/>
    </g>
    <g transform="matrix(-3.59626,219.635,-227.091,-3.71835,958.188,1645.64)">
        <path d="M0.048,-0.323C0.048,-0.11 0.232,0.046 0.439,0.046C0.601,0.046 0.775,-0.063 0.775,-0.24C0.775,-0.417 0.601,-0.525 0.439,-0.525C0.326,-0.525 0.206,-0.446 0.206,-0.323C0.206,-0.201 0.324,-0.121 0.439,-0.121C0.514,-0.121 0.575,-0.179 0.575,-0.25C0.575,-0.322 0.514,-0.379 0.439,-0.379C0.426,-0.379 0.414,-0.368 0.414,-0.354C0.414,-0.34 0.426,-0.329 0.439,-0.329C0.487,-0.329 0.525,-0.294 0.525,-0.25C0.525,-0.206 0.487,-0.171 0.439,-0.171C0.338,-0.171 0.256,-0.239 0.256,-0.323C0.256,-0.407 0.338,-0.475 0.439,-0.475C0.597,-0.475 0.725,-0.37 0.725,-0.24C0.725,-0.11 0.597,-0.004 0.439,-0.004C0.26,-0.004 0.098,-0.137 0.098,-0.323C0.098,-0.508 0.26,-0.642 0.439,-0.642C0.555,-0.642 0.642,-0.624 0.716,-0.585C0.72,-0.583 0.724,-0.582 0.728,-0.582C0.74,-0.582 0.753,-0.592 0.753,-0.607C0.753,-0.616 0.748,-0.625 0.739,-0.629C0.658,-0.672 0.563,-0.692 0.439,-0.692C0.233,-0.692 0.048,-0.536 0.048,-0.323Z" style="fill:rgb(127,42,255);fill-rule:nonzero;"/>
    </g>
    <g transform="matrix(-3.59626,219.635,-227.091,-3.71835,1663.91,586.581)">
        <path d="M0.048,-0.323C0.048,-0.11 0.232,0.046 0.439,0.046C0.601,0.046 0.775,-0.063 0.775,-0.24C0.775,-0.417 0.601,-0.525 0.439,-0.525C0.326,-0.525 0.206,-0.446 0.206,-0.323C0.206,-0.201 0.324,-0.121 0.439,-0.121C0.514,-0.121 0.575,-0.179 0.575,-0.25C0.575,-0.322 0.514,-0.379 0.439,-0.379C0.426,-0.379 0.414,-0.368 0.414,-0.354C0.414,-0.34 0.426,-0.329 0.439,-0.329C0.487,-0.329 0.525,-0.294 0.525,-0.25C0.525,-0.206 0.487,-0.171 0.439,-0.171C0.338,-0.171 0.256,-0.239 0.256,-0.323C0.256,-0.407 0.338,-0.475 0.439,-0.475C0.597,-0.475 0.725,-0.37 0.725,-0.24C0.725,-0.11 0.597,-0.004 0.439,-0.004C0.26,-0.004 0.098,-0.137 0.098,-0.323C0.098,-0.508 0.26,-0.642 0.439,-0.642C0.555,-0.642 0.642,-0.624 0.716,-0.585C0.72,-0.583 0.724,-0.582 0.728,-0.582C0.74,-0.582 0.753,-0.592 0.753,-0.607C0.753,-0.616 0.748,-0.625 0.739,-0.629C0.658,-0.672 0.563,-0.692 0.439,-0.692C0.233,-0.692 0.048,-0.536 0.048,-0.323Z" style="fill:rgb(153,255,85);fill-rule:nonzero;"/>
    </g>
    <g transform="matrix(381.501,-182.044,189.638,211.178,748.566,967.429)">
        <path d="M0.417,-0.092L0.521,-0.384L0.602,-0.162L0.689,-0.358L0.749,-0.239L0.793,-0.261L0.686,-0.475L0.607,-0.296L0.52,-0.532L0.417,-0.241L0.313,-0.532L0.227,-0.296L0.147,-0.475L0.04,-0.261L0.085,-0.239L0.144,-0.358L0.231,-0.162L0.312,-0.384L0.417,-0.092Z" style="fill:rgb(255,255,0);fill-rule:nonzero;"/>
    </g>
    <g transform="matrix(196.316,91.013,-88.745,185.248,150.342,1372.11)">
        <path d="M0.417,-0.092L0.521,-0.384L0.602,-0.162L0.689,-0.358L0.749,-0.239L0.793,-0.261L0.686,-0.475L0.607,-0.296L0.52,-0.532L0.417,-0.241L0.313,-0.532L0.227,-0.296L0.147,-0.475L0.04,-0.261L0.085,-0.239L0.144,-0.358L0.231,-0.162L0.312,-0.384L0.417,-0.092Z" style="fill:rgb(255,0,255);fill-rule:nonzero;"/>
    </g>
    <g transform="matrix(185.185,90.158,-83.7131,183.508,1392.73,789.421)">
        <path d="M0.417,0.046C0.591,0.046 0.733,-0.097 0.733,-0.271C0.733,-0.446 0.592,-0.587 0.417,-0.587C0.242,-0.587 0.1,-0.447 0.1,-0.271C0.1,-0.096 0.242,0.046 0.417,0.046ZM0.15,-0.271C0.15,-0.418 0.27,-0.537 0.417,-0.537C0.564,-0.537 0.683,-0.418 0.683,-0.271C0.683,-0.124 0.565,-0.004 0.417,-0.004C0.269,-0.004 0.15,-0.123 0.15,-0.271ZM0.664,-0.545L0.768,-0.649L0.732,-0.684L0.628,-0.58L0.664,-0.545ZM0.17,-0.545L0.205,-0.58L0.101,-0.684L0.066,-0.649L0.17,-0.545ZM0.441,-0.625L0.441,-0.75L0.392,-0.75L0.392,-0.625L0.441,-0.625Z" style="fill:rgb(255,0,255);fill-rule:nonzero;"/>
    </g>
    <g transform="matrix(495.852,28.8017,-40.0287,252.875,1443.84,1331.25)">
        <path d="M0.417,-0.092L0.521,-0.384L0.602,-0.162L0.689,-0.358L0.749,-0.239L0.793,-0.261L0.686,-0.475L0.607,-0.296L0.52,-0.532L0.417,-0.241L0.313,-0.532L0.227,-0.296L0.147,-0.475L0.04,-0.261L0.085,-0.239L0.144,-0.358L0.231,-0.162L0.312,-0.384L0.417,-0.092Z" style="fill:rgb(255,0,0);fill-rule:nonzero;"/>
    </g>
    <g transform="matrix(294.047,45.9893,-25.768,327.367,1675.3,242.905)">
        <path d="M0.417,-0.092L0.521,-0.384L0.602,-0.162L0.689,-0.358L0.749,-0.239L0.793,-0.261L0.686,-0.475L0.607,-0.296L0.52,-0.532L0.417,-0.241L0.313,-0.532L0.227,-0.296L0.147,-0.475L0.04,-0.261L0.085,-0.239L0.144,-0.358L0.231,-0.162L0.312,-0.384L0.417,-0.092Z" style="fill:rgb(0,255,0);fill-rule:nonzero;"/>
    </g>
    <g transform="matrix(-288.728,60.7524,-60.7524,-288.728,994.466,1155.08)">
        <path d="M0.13,-0.356C0.117,-0.323 0.11,-0.288 0.11,-0.252C0.11,-0.085 0.252,0.046 0.417,0.046C0.582,0.046 0.723,-0.084 0.723,-0.252C0.723,-0.288 0.716,-0.323 0.703,-0.356C0.758,-0.384 0.796,-0.44 0.796,-0.504C0.796,-0.596 0.719,-0.671 0.625,-0.671C0.531,-0.671 0.454,-0.596 0.454,-0.504C0.454,-0.412 0.531,-0.338 0.625,-0.338C0.636,-0.338 0.646,-0.339 0.656,-0.341C0.667,-0.313 0.673,-0.283 0.673,-0.252C0.673,-0.112 0.555,-0.004 0.417,-0.004C0.279,-0.004 0.16,-0.111 0.16,-0.252C0.16,-0.283 0.166,-0.313 0.177,-0.341C0.187,-0.339 0.197,-0.338 0.208,-0.338C0.302,-0.338 0.379,-0.412 0.379,-0.504C0.379,-0.596 0.302,-0.671 0.208,-0.671C0.114,-0.671 0.037,-0.596 0.037,-0.504C0.037,-0.44 0.075,-0.384 0.13,-0.356ZM0.504,-0.504C0.504,-0.568 0.558,-0.621 0.625,-0.621C0.692,-0.621 0.746,-0.568 0.746,-0.504C0.746,-0.44 0.692,-0.388 0.625,-0.388C0.558,-0.388 0.504,-0.44 0.504,-0.504ZM0.087,-0.504C0.087,-0.568 0.141,-0.621 0.208,-0.621C0.275,-0.621 0.329,-0.568 0.329,-0.504C0.329,-0.44 0.275,-0.388 0.208,-0.388C0.141,-0.388 0.087,-0.44 0.087,-0.504Z" style="fill:rgb(153,85,255);fill-rule:nonzero;"/>
    </g>
    <g transform="matrix(173.26,-32.0323,28.1467,197.179,1425.95,1903.19)">
        <path d="M0.13,-0.356C0.117,-0.323 0.11,-0.288 0.11,-0.252C0.11,-0.085 0.252,0.046 0.417,0.046C0.582,0.046 0.723,-0.084 0.723,-0.252C0.723,-0.288 0.716,-0.323 0.703,-0.356C0.758,-0.384 0.796,-0.44 0.796,-0.504C0.796,-0.596 0.719,-0.671 0.625,-0.671C0.531,-0.671 0.454,-0.596 0.454,-0.504C0.454,-0.412 0.531,-0.338 0.625,-0.338C0.636,-0.338 0.646,-0.339 0.656,-0.341C0.667,-0.313 0.673,-0.283 0.673,-0.252C0.673,-0.112 0.555,-0.004 0.417,-0.004C0.279,-0.004 0.16,-0.111 0.16,-0.252C0.16,-0.283 0.166,-0.313 0.177,-0.341C0.187,-0.339 0.197,-0.338 0.208,-0.338C0.302,-0.338 0.379,-0.412 0.379,-0.504C0.379,-0.596 0.302,-0.671 0.208,-0.671C0.114,-0.671 0.037,-0.596 0.037,-0.504C0.037,-0.44 0.075,-0.384 0.13,-0.356ZM0.504,-0.504C0.504,-0.568 0.558,-0.621 0.625,-0.621C0.692,-0.621 0.746,-0.568 0.746,-0.504C0.746,-0.44 0.692,-0.388 0.625,-0.388C0.558,-0.388 0.504,-0.44 0.504,-0.504ZM0.087,-0.504C0.087,-0.568 0.141,-0.621 0.208,-0.621C0.275,-0.621 0.329,-0.568 0.329,-0.504C0.329,-0.44 0.275,-0.388 0.208,-0.388C0.141,-0.388 0.087,-0.44 0.087,-0.504Z" style="fill:rgb(153,85,255);fill-rule:nonzero;"/>
    </g>
    <g transform="matrix(260.432,-150.45,141.249,277.398,78.3942,988.527)">
        <path d="M0.523,-0.284L0.625,-0.506L0.727,-0.284L0.773,-0.305L0.625,-0.625L0.477,-0.305L0.523,-0.284ZM0.106,-0.284L0.208,-0.506L0.31,-0.284L0.356,-0.305L0.208,-0.625L0.061,-0.305L0.106,-0.284ZM0.365,-0.076C0.365,-0.048 0.388,-0.024 0.417,-0.024C0.446,-0.024 0.469,-0.048 0.469,-0.076C0.469,-0.105 0.446,-0.128 0.417,-0.128C0.388,-0.128 0.365,-0.105 0.365,-0.076Z" style="fill:rgb(153,85,255);fill-rule:nonzero;"/>
    </g>
    <g transform="matrix(-3.01142,173.769,-190.161,-2.94185,1516.55,185.528)">
        <path d="M0.048,-0.323C0.048,-0.11 0.232,0.046 0.439,0.046C0.601,0.046 0.775,-0.063 0.775,-0.24C0.775,-0.417 0.601,-0.525 0.439,-0.525C0.326,-0.525 0.206,-0.446 0.206,-0.323C0.206,-0.201 0.324,-0.121 0.439,-0.121C0.514,-0.121 0.575,-0.179 0.575,-0.25C0.575,-0.322 0.514,-0.379 0.439,-0.379C0.426,-0.379 0.414,-0.368 0.414,-0.354C0.414,-0.34 0.426,-0.329 0.439,-0.329C0.487,-0.329 0.525,-0.294 0.525,-0.25C0.525,-0.206 0.487,-0.171 0.439,-0.171C0.338,-0.171 0.256,-0.239 0.256,-0.323C0.256,-0.407 0.338,-0.475 0.439,-0.475C0.597,-0.475 0.725,-0.37 0.725,-0.24C0.725,-0.11 0.597,-0.004 0.439,-0.004C0.26,-0.004 0.098,-0.137 0.098,-0.323C0.098,-0.508 0.26,-0.642 0.439,-0.642C0.555,-0.642 0.642,-0.624 0.716,-0.585C0.72,-0.583 0.724,-0.582 0.728,-0.582C0.74,-0.582 0.753,-0.592 0.753,-0.607C0.753,-0.616 0.748,-0.625 0.739,-0.629C0.658,-0.672 0.563,-0.692 0.439,-0.692C0.233,-0.692 0.048,-0.536 0.048,-0.323Z" style="fill:rgb(255,0,255);fill-rule:nonzero;"/>
    </g>
    <g transform="matrix(170.25,198.565,-101.746,250.508,1202.33,880.643)">
        <path d="M0.058,-0.333L0.108,-0.333L0.108,-0.353C0.108,-0.463 0.156,-0.563 0.26,-0.563C0.325,-0.563 0.358,-0.513 0.396,-0.456C0.436,-0.396 0.481,-0.328 0.573,-0.328C0.704,-0.328 0.775,-0.445 0.775,-0.587L0.775,-0.607L0.725,-0.607L0.725,-0.587C0.725,-0.477 0.677,-0.378 0.573,-0.378C0.508,-0.378 0.475,-0.427 0.437,-0.484C0.397,-0.544 0.352,-0.613 0.26,-0.613C0.128,-0.613 0.058,-0.495 0.058,-0.353L0.058,-0.333ZM0.058,-0.037L0.058,-0.017L0.108,-0.017L0.108,-0.037C0.108,-0.147 0.156,-0.247 0.26,-0.247C0.325,-0.247 0.358,-0.198 0.396,-0.141C0.436,-0.081 0.481,-0.012 0.573,-0.012C0.704,-0.012 0.775,-0.13 0.775,-0.272L0.775,-0.292L0.725,-0.292L0.725,-0.272C0.725,-0.162 0.677,-0.062 0.573,-0.062C0.508,-0.062 0.475,-0.111 0.437,-0.168C0.397,-0.228 0.352,-0.297 0.26,-0.297C0.129,-0.297 0.058,-0.179 0.058,-0.037Z" style="fill:rgb(0,255,255);fill-rule:nonzero;"/>
    </g>
    <g transform="matrix(195.476,73.3662,22.7672,208.022,144.224,1576.47)">
        <path d="M0.058,-0.333L0.108,-0.333L0.108,-0.353C0.108,-0.463 0.156,-0.563 0.26,-0.563C0.325,-0.563 0.358,-0.513 0.396,-0.456C0.436,-0.396 0.481,-0.328 0.573,-0.328C0.704,-0.328 0.775,-0.445 0.775,-0.587L0.775,-0.607L0.725,-0.607L0.725,-0.587C0.725,-0.477 0.677,-0.378 0.573,-0.378C0.508,-0.378 0.475,-0.427 0.437,-0.484C0.397,-0.544 0.352,-0.613 0.26,-0.613C0.128,-0.613 0.058,-0.495 0.058,-0.353L0.058,-0.333ZM0.058,-0.037L0.058,-0.017L0.108,-0.017L0.108,-0.037C0.108,-0.147 0.156,-0.247 0.26,-0.247C0.325,-0.247 0.358,-0.198 0.396,-0.141C0.436,-0.081 0.481,-0.012 0.573,-0.012C0.704,-0.012 0.775,-0.13 0.775,-0.272L0.775,-0.292L0.725,-0.292L0.725,-0.272C0.725,-0.162 0.677,-0.062 0.573,-0.062C0.508,-0.062 0.475,-0.111 0.437,-0.168C0.397,-0.228 0.352,-0.297 0.26,-0.297C0.129,-0.297 0.058,-0.179 0.058,-0.037Z" style="fill:rgb(0,255,255);fill-rule:nonzero;"/>
    </g>
    <g transform="matrix(255.317,-30.1755,26.3574,292.303,776.026,691.004)">
        <path d="M0.417,-0.079C0.536,-0.079 0.626,-0.14 0.686,-0.21C0.749,-0.284 0.795,-0.391 0.795,-0.521L0.746,-0.521C0.746,-0.305 0.598,-0.129 0.417,-0.129C0.236,-0.129 0.087,-0.305 0.087,-0.521L0.038,-0.521C0.038,-0.305 0.183,-0.079 0.417,-0.079Z" style="fill:rgb(255,0,255);fill-rule:nonzero;"/>
    </g>
    <g transform="matrix(198.704,-20.5129,20.5129,198.704,1238.56,1388.2)">
        <path d="M0.417,-0.079C0.536,-0.079 0.626,-0.14 0.686,-0.21C0.749,-0.284 0.795,-0.391 0.795,-0.521L0.746,-0.521C0.746,-0.305 0.598,-0.129 0.417,-0.129C0.236,-0.129 0.087,-0.305 0.087,-0.521L0.038,-0.521C0.038,-0.305 0.183,-0.079 0.417,-0.079Z" style="fill:rgb(255,0,255);fill-rule:nonzero;"/>
    </g>
    <g transform="matrix(188.566,-82.8538,85.7451,182.567,1753.38,1934.46)">
        <path d="M0.417,0.046C0.591,0.046 0.733,-0.097 0.733,-0.271C0.733,-0.446 0.592,-0.587 0.417,-0.587C0.242,-0.587 0.1,-0.447 0.1,-0.271C0.1,-0.096 0.242,0.046 0.417,0.046ZM0.15,-0.271C0.15,-0.418 0.27,-0.537 0.417,-0.537C0.564,-0.537 0.683,-0.418 0.683,-0.271C0.683,-0.124 0.565,-0.004 0.417,-0.004C0.269,-0.004 0.15,-0.123 0.15,-0.271ZM0.664,-0.545L0.768,-0.649L0.732,-0.684L0.628,-0.58L0.664,-0.545ZM0.17,-0.545L0.205,-0.58L0.101,-0.684L0.066,-0.649L0.17,-0.545ZM0.441,-0.625L0.441,-0.75L0.392,-0.75L0.392,-0.625L0.441,-0.625Z" style="fill:rgb(0,255,255);fill-rule:nonzero;"/>
    </g>
    <g transform="matrix(-202.111,-39.6622,33.8629,-198.837,735.772,1798.04)">
        <path d="M0.417,0.046C0.591,0.046 0.733,-0.097 0.733,-0.271C0.733,-0.446 0.592,-0.587 0.417,-0.587C0.242,-0.587 0.1,-0.447 0.1,-0.271C0.1,-0.096 0.242,0.046 0.417,0.046ZM0.15,-0.271C0.15,-0.418 0.27,-0.537 0.417,-0.537C0.564,-0.537 0.683,-0.418 0.683,-0.271C0.683,-0.124 0.565,-0.004 0.417,-0.004C0.269,-0.004 0.15,-0.123 0.15,-0.271ZM0.664,-0.545L0.768,-0.649L0.732,-0.684L0.628,-0.58L0.664,-0.545ZM0.17,-0.545L0.205,-0.58L0.101,-0.684L0.066,-0.649L0.17,-0.545ZM0.441,-0.625L0.441,-0.75L0.392,-0.75L0.392,-0.625L0.441,-0.625Z" style="fill:rgb(0,0,255);fill-rule:nonzero;"/>
    </g>
    <g transform="matrix(197.228,103.74,-108.444,188.674,281.1,1224.28)">
        <path d="M0.048,-0.323C0.048,-0.119 0.213,0.046 0.417,0.046C0.621,0.046 0.785,-0.12 0.785,-0.323C0.785,-0.525 0.62,-0.692 0.417,-0.692C0.214,-0.692 0.048,-0.526 0.048,-0.323ZM0.417,-0.642C0.593,-0.642 0.735,-0.498 0.735,-0.323C0.735,-0.148 0.593,-0.004 0.417,-0.004C0.241,-0.004 0.098,-0.147 0.098,-0.323C0.098,-0.499 0.241,-0.642 0.417,-0.642ZM0.236,-0.323C0.236,-0.221 0.315,-0.142 0.417,-0.142C0.517,-0.142 0.598,-0.223 0.598,-0.323C0.598,-0.423 0.517,-0.504 0.417,-0.504C0.316,-0.504 0.236,-0.424 0.236,-0.323ZM0.417,-0.454C0.489,-0.454 0.548,-0.395 0.548,-0.323C0.548,-0.251 0.489,-0.192 0.417,-0.192C0.345,-0.192 0.285,-0.251 0.285,-0.323C0.285,-0.395 0.345,-0.454 0.417,-0.454Z" style="fill:rgb(127,255,42);fill-rule:nonzero;"/>
    </g>
    <g transform="matrix(204.715,107.856,-112.561,196.158,553.034,179.897)">
        <path d="M0.048,-0.323C0.048,-0.119 0.213,0.046 0.417,0.046C0.621,0.046 0.785,-0.12 0.785,-0.323C0.785,-0.525 0.62,-0.692 0.417,-0.692C0.214,-0.692 0.048,-0.526 0.048,-0.323ZM0.417,-0.642C0.593,-0.642 0.735,-0.498 0.735,-0.323C0.735,-0.148 0.593,-0.004 0.417,-0.004C0.241,-0.004 0.098,-0.147 0.098,-0.323C0.098,-0.499 0.241,-0.642 0.417,-0.642ZM0.236,-0.323C0.236,-0.221 0.315,-0.142 0.417,-0.142C0.517,-0.142 0.598,-0.223 0.598,-0.323C0.598,-0.423 0.517,-0.504 0.417,-0.504C0.316,-0.504 0.236,-0.424 0.236,-0.323ZM0.417,-0.454C0.489,-0.454 0.548,-0.395 0.548,-0.323C0.548,-0.251 0.489,-0.192 0.417,-0.192C0.345,-0.192 0.285,-0.251 0.285,-0.323C0.285,-0.395 0.345,-0.454 0.417,-0.454Z" style="fill:rgb(127,255,42);fill-rule:nonzero;"/>
    </g>
    <g transform="matrix(147.912,76.6353,-81.328,139.377,335.828,1771.3)">
        <path d="M0.048,-0.323C0.048,-0.119 0.213,0.046 0.417,0.046C0.621,0.046 0.785,-0.12 0.785,-0.323C0.785,-0.525 0.62,-0.692 0.417,-0.692C0.214,-0.692 0.048,-0.526 0.048,-0.323ZM0.417,-0.642C0.593,-0.642 0.735,-0.498 0.735,-0.323C0.735,-0.148 0.593,-0.004 0.417,-0.004C0.241,-0.004 0.098,-0.147 0.098,-0.323C0.098,-0.499 0.241,-0.642 0.417,-0.642ZM0.236,-0.323C0.236,-0.221 0.315,-0.142 0.417,-0.142C0.517,-0.142 0.598,-0.223 0.598,-0.323C0.598,-0.423 0.517,-0.504 0.417,-0.504C0.316,-0.504 0.236,-0.424 0.236,-0.323ZM0.417,-0.454C0.489,-0.454 0.548,-0.395 0.548,-0.323C0.548,-0.251 0.489,-0.192 0.417,-0.192C0.345,-0.192 0.285,-0.251 0.285,-0.323C0.285,-0.395 0.345,-0.454 0.417,-0.454Z" style="fill:rgb(127,42,255);fill-rule:nonzero;"/>
    </g>
    <g transform="matrix(147.912,76.6353,-81.328,139.377,553.059,1630.77)">
        <path d="M0.1,-0.031C0.1,-0.021 0.106,-0.012 0.116,-0.008C0.174,0.014 0.236,0.025 0.301,0.025C0.426,0.025 0.532,-0.017 0.605,-0.075C0.673,-0.13 0.733,-0.212 0.733,-0.323C0.733,-0.547 0.5,-0.671 0.301,-0.671C0.236,-0.671 0.174,-0.66 0.116,-0.638C0.106,-0.634 0.1,-0.624 0.1,-0.614C0.1,-0.602 0.108,-0.593 0.119,-0.59C0.246,-0.561 0.375,-0.465 0.375,-0.323C0.375,-0.18 0.246,-0.085 0.119,-0.056C0.108,-0.054 0.1,-0.043 0.1,-0.031ZM0.425,-0.323C0.425,-0.455 0.327,-0.562 0.21,-0.612C0.239,-0.618 0.27,-0.621 0.301,-0.621C0.512,-0.621 0.683,-0.487 0.683,-0.323C0.683,-0.159 0.512,-0.025 0.301,-0.025C0.27,-0.025 0.239,-0.027 0.21,-0.033C0.328,-0.087 0.425,-0.185 0.425,-0.323Z" style="fill:rgb(127,42,255);fill-rule:nonzero;"/>
    </g>
    <g transform="matrix(-188.843,-32.4935,41.2835,-177.294,1607.66,417.939)">
        <path d="M0.1,-0.031C0.1,-0.021 0.106,-0.012 0.116,-0.008C0.174,0.014 0.236,0.025 0.301,0.025C0.426,0.025 0.532,-0.017 0.605,-0.075C0.673,-0.13 0.733,-0.212 0.733,-0.323C0.733,-0.547 0.5,-0.671 0.301,-0.671C0.236,-0.671 0.174,-0.66 0.116,-0.638C0.106,-0.634 0.1,-0.624 0.1,-0.614C0.1,-0.602 0.108,-0.593 0.119,-0.59C0.246,-0.561 0.375,-0.465 0.375,-0.323C0.375,-0.18 0.246,-0.085 0.119,-0.056C0.108,-0.054 0.1,-0.043 0.1,-0.031ZM0.425,-0.323C0.425,-0.455 0.327,-0.562 0.21,-0.612C0.239,-0.618 0.27,-0.621 0.301,-0.621C0.512,-0.621 0.683,-0.487 0.683,-0.323C0.683,-0.159 0.512,-0.025 0.301,-0.025C0.27,-0.025 0.239,-0.027 0.21,-0.033C0.328,-0.087 0.425,-0.185 0.425,-0.323Z" style="fill:rgb(127,255,42);fill-rule:nonzero;"/>
    </g>
    <g transform="matrix(255.128,60.0217,-45.9262,240.714,239.576,800.624)">
        <path d="M0.285,0.009C0.348,0.009 0.397,-0.033 0.423,-0.088C0.439,-0.064 0.458,-0.031 0.479,0.011L0.524,-0.011C0.481,-0.097 0.45,-0.143 0.419,-0.169C0.384,-0.198 0.35,-0.201 0.308,-0.201C0.234,-0.201 0.185,-0.154 0.185,-0.08C0.185,-0.02 0.229,0.009 0.285,0.009ZM0.306,-0.666L0.306,-0.292L0.356,-0.292L0.356,-0.666L0.306,-0.666ZM0.252,-0.13C0.264,-0.144 0.284,-0.151 0.308,-0.151L0.31,-0.151C0.346,-0.151 0.366,-0.148 0.387,-0.131C0.359,-0.051 0.307,-0.041 0.285,-0.041C0.268,-0.041 0.253,-0.045 0.245,-0.052C0.242,-0.054 0.235,-0.061 0.235,-0.08C0.235,-0.106 0.245,-0.123 0.252,-0.13Z" style="fill:rgb(255,0,0);fill-rule:nonzero;"/>
    </g>
    <g transform="matrix(193.128,258.708,-235.446,189.619,684.519,987.06)">
        <path d="M0.285,0.009C0.348,0.009 0.397,-0.033 0.423,-0.088C0.439,-0.064 0.458,-0.031 0.479,0.011L0.524,-0.011C0.481,-0.097 0.45,-0.143 0.419,-0.169C0.384,-0.198 0.35,-0.201 0.308,-0.201C0.234,-0.201 0.185,-0.154 0.185,-0.08C0.185,-0.02 0.229,0.009 0.285,0.009ZM0.306,-0.666L0.306,-0.292L0.356,-0.292L0.356,-0.666L0.306,-0.666ZM0.252,-0.13C0.264,-0.144 0.284,-0.151 0.308,-0.151L0.31,-0.151C0.346,-0.151 0.366,-0.148 0.387,-0.131C0.359,-0.051 0.307,-0.041 0.285,-0.041C0.268,-0.041 0.253,-0.045 0.245,-0.052C0.242,-0.054 0.235,-0.061 0.235,-0.08C0.235,-0.106 0.245,-0.123 0.252,-0.13Z" style="fill:rgb(255,0,0);fill-rule:nonzero;"/>
    </g>
    <g transform="matrix(121.53,144.804,-199.353,155.429,916.584,1508.74)">
        <path d="M0.285,0.009C0.348,0.009 0.397,-0.033 0.423,-0.088C0.439,-0.064 0.458,-0.031 0.479,0.011L0.524,-0.011C0.481,-0.097 0.45,-0.143 0.419,-0.169C0.384,-0.198 0.35,-0.201 0.308,-0.201C0.234,-0.201 0.185,-0.154 0.185,-0.08C0.185,-0.02 0.229,0.009 0.285,0.009ZM0.306,-0.666L0.306,-0.292L0.356,-0.292L0.356,-0.666L0.306,-0.666ZM0.252,-0.13C0.264,-0.144 0.284,-0.151 0.308,-0.151L0.31,-0.151C0.346,-0.151 0.366,-0.148 0.387,-0.131C0.359,-0.051 0.307,-0.041 0.285,-0.041C0.268,-0.041 0.253,-0.045 0.245,-0.052C0.242,-0.054 0.235,-0.061 0.235,-0.08C0.235,-0.106 0.245,-0.123 0.252,-0.13Z" style="fill:rgb(255,255,0);fill-rule:nonzero;"/>
    </g>
    <g transform="matrix(108.133,178.374,-238.345,176.108,1412.13,1583.83)">
        <path d="M0.285,0.009C0.348,0.009 0.397,-0.033 0.423,-0.088C0.439,-0.064 0.458,-0.031 0.479,0.011L0.524,-0.011C0.481,-0.097 0.45,-0.143 0.419,-0.169C0.384,-0.198 0.35,-0.201 0.308,-0.201C0.234,-0.201 0.185,-0.154 0.185,-0.08C0.185,-0.02 0.229,0.009 0.285,0.009ZM0.306,-0.666L0.306,-0.292L0.356,-0.292L0.356,-0.666L0.306,-0.666ZM0.252,-0.13C0.264,-0.144 0.284,-0.151 0.308,-0.151L0.31,-0.151C0.346,-0.151 0.366,-0.148 0.387,-0.131C0.359,-0.051 0.307,-0.041 0.285,-0.041C0.268,-0.041 0.253,-0.045 0.245,-0.052C0.242,-0.054 0.235,-0.061 0.235,-0.08C0.235,-0.106 0.245,-0.123 0.252,-0.13Z" style="fill:rgb(0,255,255);fill-rule:nonzero;"/>
    </g>
    <g transform="matrix(212.969,60.7455,-53.0674,210.473,90.0525,239.804)">
        <path d="M0.132,-0.25C0.14,-0.246 0.149,-0.242 0.149,-0.233C0.149,-0.231 0.148,-0.229 0.147,-0.226C0.127,-0.202 0.109,-0.168 0.109,-0.129C0.109,-0.039 0.189,0.025 0.275,0.025C0.327,0.025 0.375,0.003 0.4,-0.029L0.401,-0.029C0.405,-0.032 0.41,-0.034 0.415,-0.034C0.42,-0.034 0.425,-0.032 0.429,-0.029C0.459,0.001 0.499,0.025 0.555,0.025C0.642,0.025 0.721,-0.038 0.721,-0.129C0.721,-0.164 0.706,-0.197 0.688,-0.22C0.684,-0.224 0.683,-0.228 0.683,-0.232C0.683,-0.238 0.687,-0.243 0.692,-0.246C0.75,-0.266 0.795,-0.326 0.795,-0.388C0.795,-0.473 0.718,-0.54 0.633,-0.542C0.622,-0.542 0.61,-0.541 0.601,-0.539C0.592,-0.539 0.584,-0.546 0.582,-0.553C0.582,-0.644 0.508,-0.712 0.415,-0.712C0.324,-0.712 0.247,-0.646 0.247,-0.557C0.247,-0.543 0.234,-0.541 0.221,-0.541C0.214,-0.541 0.208,-0.542 0.201,-0.542C0.116,-0.54 0.039,-0.473 0.039,-0.388C0.039,-0.328 0.079,-0.274 0.132,-0.25ZM0.201,-0.492C0.208,-0.492 0.216,-0.492 0.221,-0.491C0.264,-0.491 0.297,-0.517 0.297,-0.557C0.297,-0.617 0.35,-0.662 0.415,-0.662C0.476,-0.662 0.528,-0.62 0.532,-0.566L0.532,-0.549C0.536,-0.515 0.566,-0.489 0.602,-0.489C0.611,-0.489 0.621,-0.492 0.632,-0.492C0.69,-0.49 0.745,-0.447 0.745,-0.388C0.745,-0.344 0.71,-0.307 0.67,-0.291C0.646,-0.282 0.633,-0.258 0.633,-0.233C0.633,-0.219 0.637,-0.204 0.646,-0.192C0.659,-0.176 0.671,-0.155 0.671,-0.129C0.671,-0.072 0.619,-0.025 0.555,-0.025C0.523,-0.025 0.492,-0.037 0.47,-0.059C0.456,-0.073 0.438,-0.084 0.415,-0.084C0.397,-0.084 0.38,-0.077 0.367,-0.066C0.343,-0.042 0.313,-0.025 0.275,-0.025C0.211,-0.025 0.159,-0.072 0.159,-0.129C0.159,-0.155 0.173,-0.177 0.186,-0.194C0.195,-0.203 0.199,-0.22 0.199,-0.233C0.199,-0.259 0.184,-0.283 0.16,-0.293C0.121,-0.308 0.089,-0.346 0.089,-0.388C0.089,-0.447 0.142,-0.49 0.201,-0.492Z" style="fill:rgb(0,255,255);fill-rule:nonzero;"/>
    </g>
    <g transform="matrix(239.851,68.4871,-59.7659,237.297,584.266,451.762)">
        <path d="M0.132,-0.25C0.14,-0.246 0.149,-0.242 0.149,-0.233C0.149,-0.231 0.148,-0.229 0.147,-0.226C0.127,-0.202 0.109,-0.168 0.109,-0.129C0.109,-0.039 0.189,0.025 0.275,0.025C0.327,0.025 0.375,0.003 0.4,-0.029L0.401,-0.029C0.405,-0.032 0.41,-0.034 0.415,-0.034C0.42,-0.034 0.425,-0.032 0.429,-0.029C0.459,0.001 0.499,0.025 0.555,0.025C0.642,0.025 0.721,-0.038 0.721,-0.129C0.721,-0.164 0.706,-0.197 0.688,-0.22C0.684,-0.224 0.683,-0.228 0.683,-0.232C0.683,-0.238 0.687,-0.243 0.692,-0.246C0.75,-0.266 0.795,-0.326 0.795,-0.388C0.795,-0.473 0.718,-0.54 0.633,-0.542C0.622,-0.542 0.61,-0.541 0.601,-0.539C0.592,-0.539 0.584,-0.546 0.582,-0.553C0.582,-0.644 0.508,-0.712 0.415,-0.712C0.324,-0.712 0.247,-0.646 0.247,-0.557C0.247,-0.543 0.234,-0.541 0.221,-0.541C0.214,-0.541 0.208,-0.542 0.201,-0.542C0.116,-0.54 0.039,-0.473 0.039,-0.388C0.039,-0.328 0.079,-0.274 0.132,-0.25ZM0.201,-0.492C0.208,-0.492 0.216,-0.492 0.221,-0.491C0.264,-0.491 0.297,-0.517 0.297,-0.557C0.297,-0.617 0.35,-0.662 0.415,-0.662C0.476,-0.662 0.528,-0.62 0.532,-0.566L0.532,-0.549C0.536,-0.515 0.566,-0.489 0.602,-0.489C0.611,-0.489 0.621,-0.492 0.632,-0.492C0.69,-0.49 0.745,-0.447 0.745,-0.388C0.745,-0.344 0.71,-0.307 0.67,-0.291C0.646,-0.282 0.633,-0.258 0.633,-0.233C0.633,-0.219 0.637,-0.204 0.646,-0.192C0.659,-0.176 0.671,-0.155 0.671,-0.129C0.671,-0.072 0.619,-0.025 0.555,-0.025C0.523,-0.025 0.492,-0.037 0.47,-0.059C0.456,-0.073 0.438,-0.084 0.415,-0.084C0.397,-0.084 0.38,-0.077 0.367,-0.066C0.343,-0.042 0.313,-0.025 0.275,-0.025C0.211,-0.025 0.159,-0.072 0.159,-0.129C0.159,-0.155 0.173,-0.177 0.186,-0.194C0.195,-0.203 0.199,-0.22 0.199,-0.233C0.199,-0.259 0.184,-0.283 0.16,-0.293C0.121,-0.308 0.089,-0.346 0.089,-0.388C0.089,-0.447 0.142,-0.49 0.201,-0.492Z" style="fill:rgb(255,0,0);fill-rule:nonzero;"/>
    </g>
    <g transform="matrix(342.135,-163.032,119.116,78.174,488.772,827.137)">
        <path d="M0.037,-0.5C0.037,-0.368 0.066,-0.082 0.25,-0.082C0.295,-0.082 0.333,-0.119 0.358,-0.153C0.413,-0.228 0.46,-0.35 0.515,-0.424C0.541,-0.459 0.563,-0.475 0.583,-0.475C0.735,-0.475 0.746,-0.21 0.746,-0.107L0.796,-0.107C0.796,-0.245 0.777,-0.525 0.583,-0.525C0.533,-0.525 0.501,-0.488 0.475,-0.453C0.419,-0.379 0.373,-0.257 0.318,-0.183C0.292,-0.148 0.27,-0.132 0.25,-0.132C0.108,-0.132 0.087,-0.404 0.087,-0.5L0.037,-0.5Z" style="fill:rgb(42,255,128);fill-rule:nonzero;"/>
    </g>
    <g transform="matrix(-176.342,335.468,-142.209,8.73813,1483.04,918.623)">
        <path d="M0.037,-0.5C0.037,-0.368 0.066,-0.082 0.25,-0.082C0.295,-0.082 0.333,-0.119 0.358,-0.153C0.413,-0.228 0.46,-0.35 0.515,-0.424C0.541,-0.459 0.563,-0.475 0.583,-0.475C0.735,-0.475 0.746,-0.21 0.746,-0.107L0.796,-0.107C0.796,-0.245 0.777,-0.525 0.583,-0.525C0.533,-0.525 0.501,-0.488 0.475,-0.453C0.419,-0.379 0.373,-0.257 0.318,-0.183C0.292,-0.148 0.27,-0.132 0.25,-0.132C0.108,-0.132 0.087,-0.404 0.087,-0.5L0.037,-0.5Z" style="fill:rgb(0,0,255);fill-rule:nonzero;"/>
    </g>
    <g transform="matrix(-378.546,-18.4028,-67.9012,-125.256,359.394,1848.5)">
        <path d="M0.037,-0.5C0.037,-0.368 0.066,-0.082 0.25,-0.082C0.295,-0.082 0.333,-0.119 0.358,-0.153C0.413,-0.228 0.46,-0.35 0.515,-0.424C0.541,-0.459 0.563,-0.475 0.583,-0.475C0.735,-0.475 0.746,-0.21 0.746,-0.107L0.796,-0.107C0.796,-0.245 0.777,-0.525 0.583,-0.525C0.533,-0.525 0.501,-0.488 0.475,-0.453C0.419,-0.379 0.373,-0.257 0.318,-0.183C0.292,-0.148 0.27,-0.132 0.25,-0.132C0.108,-0.132 0.087,-0.404 0.087,-0.5L0.037,-0.5Z" style="fill:rgb(255,255,0);fill-rule:nonzero;"/>
    </g>
    <g transform="matrix(-266.833,269.139,-138.536,-33.2804,1530.98,24.7525)">
        <path d="M0.037,-0.5C0.037,-0.368 0.066,-0.082 0.25,-0.082C0.295,-0.082 0.333,-0.119 0.358,-0.153C0.413,-0.228 0.46,-0.35 0.515,-0.424C0.541,-0.459 0.563,-0.475 0.583,-0.475C0.735,-0.475 0.746,-0.21 0.746,-0.107L0.796,-0.107C0.796,-0.245 0.777,-0.525 0.583,-0.525C0.533,-0.525 0.501,-0.488 0.475,-0.453C0.419,-0.379 0.373,-0.257 0.318,-0.183C0.292,-0.148 0.27,-0.132 0.25,-0.132C0.108,-0.132 0.087,-0.404 0.087,-0.5L0.037,-0.5Z" style="fill:rgb(0,255,0);fill-rule:nonzero;"/>
    </g>
    <g transform="matrix(193.796,-95.6996,94.289,190.102,361.425,504.852)">
        <path d="M0.037,-0.377C0.049,-0.211 0.207,-0.089 0.341,-0.012C0.362,-0 0.384,0.011 0.406,0.023L0.417,0.028L0.427,0.023C0.43,0.021 0.432,0.02 0.435,0.018L0.443,0.014C0.586,-0.063 0.793,-0.206 0.793,-0.39L0.793,-0.428C0.789,-0.557 0.742,-0.643 0.617,-0.65L0.591,-0.65C0.586,-0.65 0.581,-0.648 0.576,-0.648C0.486,-0.637 0.447,-0.578 0.417,-0.508C0.384,-0.582 0.339,-0.65 0.232,-0.65L0.222,-0.65C0.22,-0.65 0.218,-0.649 0.216,-0.649L0.211,-0.649C0.09,-0.632 0.037,-0.514 0.037,-0.402L0.037,-0.377ZM0.088,-0.382L0.088,-0.4C0.088,-0.482 0.125,-0.587 0.217,-0.599C0.218,-0.599 0.219,-0.6 0.22,-0.6L0.231,-0.6C0.338,-0.6 0.358,-0.516 0.398,-0.448L0.415,-0.414L0.435,-0.448C0.448,-0.47 0.458,-0.494 0.471,-0.515C0.497,-0.563 0.525,-0.591 0.59,-0.6L0.615,-0.6C0.621,-0.6 0.626,-0.599 0.632,-0.598C0.727,-0.587 0.741,-0.507 0.748,-0.408L0.748,-0.39C0.748,-0.326 0.72,-0.283 0.694,-0.244C0.617,-0.144 0.524,-0.087 0.417,-0.028C0.294,-0.089 0.102,-0.224 0.089,-0.376L0.089,-0.38C0.089,-0.381 0.088,-0.382 0.088,-0.382Z" style="fill:rgb(0,255,0);fill-rule:nonzero;"/>
    </g>
    <g transform="matrix(136.245,-117.867,119.968,129.077,844.51,1950.08)">
        <path d="M0.037,-0.377C0.049,-0.211 0.207,-0.089 0.341,-0.012C0.362,-0 0.384,0.011 0.406,0.023L0.417,0.028L0.427,0.023C0.43,0.021 0.432,0.02 0.435,0.018L0.443,0.014C0.586,-0.063 0.793,-0.206 0.793,-0.39L0.793,-0.428C0.789,-0.557 0.742,-0.643 0.617,-0.65L0.591,-0.65C0.586,-0.65 0.581,-0.648 0.576,-0.648C0.486,-0.637 0.447,-0.578 0.417,-0.508C0.384,-0.582 0.339,-0.65 0.232,-0.65L0.222,-0.65C0.22,-0.65 0.218,-0.649 0.216,-0.649L0.211,-0.649C0.09,-0.632 0.037,-0.514 0.037,-0.402L0.037,-0.377ZM0.088,-0.382L0.088,-0.4C0.088,-0.482 0.125,-0.587 0.217,-0.599C0.218,-0.599 0.219,-0.6 0.22,-0.6L0.231,-0.6C0.338,-0.6 0.358,-0.516 0.398,-0.448L0.415,-0.414L0.435,-0.448C0.448,-0.47 0.458,-0.494 0.471,-0.515C0.497,-0.563 0.525,-0.591 0.59,-0.6L0.615,-0.6C0.621,-0.6 0.626,-0.599 0.632,-0.598C0.727,-0.587 0.741,-0.507 0.748,-0.408L0.748,-0.39C0.748,-0.326 0.72,-0.283 0.694,-0.244C0.617,-0.144 0.524,-0.087 0.417,-0.028C0.294,-0.089 0.102,-0.224 0.089,-0.376L0.089,-0.38C0.089,-0.381 0.088,-0.382 0.088,-0.382Z" style="fill:rgb(0,255,0);fill-rule:nonzero;"/>
    </g>
    <g transform="matrix(207.555,64.0711,-64.5178,197.698,1644.15,1511.06)">
        <path d="M0.037,-0.377C0.049,-0.211 0.207,-0.089 0.341,-0.012C0.362,-0 0.384,0.011 0.406,0.023L0.417,0.028L0.427,0.023C0.43,0.021 0.432,0.02 0.435,0.018L0.443,0.014C0.586,-0.063 0.793,-0.206 0.793,-0.39L0.793,-0.428C0.789,-0.557 0.742,-0.643 0.617,-0.65L0.591,-0.65C0.586,-0.65 0.581,-0.648 0.576,-0.648C0.486,-0.637 0.447,-0.578 0.417,-0.508C0.384,-0.582 0.339,-0.65 0.232,-0.65L0.222,-0.65C0.22,-0.65 0.218,-0.649 0.216,-0.649L0.211,-0.649C0.09,-0.632 0.037,-0.514 0.037,-0.402L0.037,-0.377ZM0.088,-0.382L0.088,-0.4C0.088,-0.482 0.125,-0.587 0.217,-0.599C0.218,-0.599 0.219,-0.6 0.22,-0.6L0.231,-0.6C0.338,-0.6 0.358,-0.516 0.398,-0.448L0.415,-0.414L0.435,-0.448C0.448,-0.47 0.458,-0.494 0.471,-0.515C0.497,-0.563 0.525,-0.591 0.59,-0.6L0.615,-0.6C0.621,-0.6 0.626,-0.599 0.632,-0.598C0.727,-0.587 0.741,-0.507 0.748,-0.408L0.748,-0.39C0.748,-0.326 0.72,-0.283 0.694,-0.244C0.617,-0.144 0.524,-0.087 0.417,-0.028C0.294,-0.089 0.102,-0.224 0.089,-0.376L0.089,-0.38C0.089,-0.381 0.088,-0.382 0.088,-0.382Z" style="fill:rgb(255,0,255);fill-rule:nonzero;"/>
    </g>
    <g transform="matrix(-323.647,-118.457,-25.0376,-127.122,1070.99,190.628)">
        <path d="M0.037,-0.5C0.037,-0.368 0.066,-0.082 0.25,-0.082C0.295,-0.082 0.333,-0.119 0.358,-0.153C0.413,-0.228 0.46,-0.35 0.515,-0.424C0.541,-0.459 0.563,-0.475 0.583,-0.475C0.735,-0.475 0.746,-0.21 0.746,-0.107L0.796,-0.107C0.796,-0.245 0.777,-0.525 0.583,-0.525C0.533,-0.525 0.501,-0.488 0.475,-0.453C0.419,-0.379 0.373,-0.257 0.318,-0.183C0.292,-0.148 0.27,-0.132 0.25,-0.132C0.108,-0.132 0.087,-0.404 0.087,-0.5L0.037,-0.5Z" style="fill:rgb(255,255,0);fill-rule:nonzero;"/>
    </g>
    <g transform="matrix(-147.141,135.106,-135.106,-147.141,1913.49,769.104)">
        <path d="M0.417,-0.079C0.536,-0.079 0.626,-0.14 0.686,-0.21C0.749,-0.284 0.795,-0.391 0.795,-0.521L0.746,-0.521C0.746,-0.305 0.598,-0.129 0.417,-0.129C0.236,-0.129 0.087,-0.305 0.087,-0.521L0.038,-0.521C0.038,-0.305 0.183,-0.079 0.417,-0.079Z" style="fill:rgb(0,255,255);fill-rule:nonzero;"/>
    </g>
    <g transform="matrix(156.818,-105.087,105.087,156.818,894.161,463.149)">
        <path d="M0.321,-0.217C0.372,-0.108 0.393,-0.036 0.393,-0.035L0.417,0.049L0.441,-0.035C0.441,-0.035 0.462,-0.107 0.513,-0.216C0.582,-0.366 0.67,-0.506 0.769,-0.63L0.73,-0.661C0.605,-0.506 0.493,-0.317 0.417,-0.118C0.341,-0.319 0.228,-0.504 0.103,-0.661L0.064,-0.63C0.162,-0.507 0.252,-0.366 0.321,-0.217Z" style="fill:rgb(255,0,0);fill-rule:nonzero;"/>
    </g>
    <g transform="matrix(-163.673,71.602,-50.8127,-220.941,1162.61,1207.54)">
        <path d="M0.321,-0.217C0.372,-0.108 0.393,-0.036 0.393,-0.035L0.417,0.049L0.441,-0.035C0.441,-0.035 0.462,-0.107 0.513,-0.216C0.582,-0.366 0.67,-0.506 0.769,-0.63L0.73,-0.661C0.605,-0.506 0.493,-0.317 0.417,-0.118C0.341,-0.319 0.228,-0.504 0.103,-0.661L0.064,-0.63C0.162,-0.507 0.252,-0.366 0.321,-0.217Z" style="fill:rgb(255,0,0);fill-rule:nonzero;"/>
    </g>
    <g transform="matrix(-145.452,91.6138,-89.2091,-151.627,151.774,298.949)">
        <path d="M0.441,-0.625L0.441,-0.75L0.392,-0.75L0.392,-0.625L0.441,-0.625ZM0.664,-0.566L0.768,-0.67L0.732,-0.705L0.628,-0.601L0.664,-0.566ZM0.17,-0.566L0.205,-0.601L0.101,-0.705L0.066,-0.67L0.17,-0.566ZM0.692,0.025L0.692,-0.504L0.142,-0.504L0.142,0.025L0.692,0.025ZM0.192,-0.025L0.192,-0.454L0.642,-0.454L0.642,-0.025L0.192,-0.025Z" style="fill:rgb(0,255,0);fill-rule:nonzero;"/>
    </g>
    <g transform="matrix(122.926,-168.588,195.032,110.942,836.618,1809.72)">
        <path d="M0.355,-0.101L0.611,-0.486L0.569,-0.514L0.354,-0.191L0.139,-0.514L0.098,-0.486L0.355,-0.101Z" style="fill:rgb(255,0,255);fill-rule:nonzero;"/>
    </g>
    <g transform="matrix(153.417,186.199,-179.909,158.652,995.361,331.118)">
        <path d="M0.204,-0.149L0.204,0.021L0.254,0.021L0.254,-0.101L0.687,-0.123L0.376,-0.679L0.332,-0.654L0.604,-0.169L0.204,-0.149ZM0.208,-0.302C0.208,-0.274 0.231,-0.25 0.26,-0.25C0.289,-0.25 0.312,-0.274 0.312,-0.302C0.312,-0.331 0.289,-0.354 0.26,-0.354C0.231,-0.354 0.208,-0.331 0.208,-0.302ZM0.406,-0.25C0.435,-0.25 0.458,-0.274 0.458,-0.302C0.458,-0.331 0.435,-0.354 0.406,-0.354C0.378,-0.354 0.354,-0.331 0.354,-0.302C0.354,-0.274 0.378,-0.25 0.406,-0.25Z" style="fill:rgb(0,255,0);fill-rule:nonzero;"/>
    </g>
    <g transform="matrix(222.897,43.7504,-39.2609,247.519,1354.22,1498.05)">
        <path d="M0.204,-0.149L0.204,0.021L0.254,0.021L0.254,-0.101L0.687,-0.123L0.376,-0.679L0.332,-0.654L0.604,-0.169L0.204,-0.149ZM0.208,-0.302C0.208,-0.274 0.231,-0.25 0.26,-0.25C0.289,-0.25 0.312,-0.274 0.312,-0.302C0.312,-0.331 0.289,-0.354 0.26,-0.354C0.231,-0.354 0.208,-0.331 0.208,-0.302ZM0.406,-0.25C0.435,-0.25 0.458,-0.274 0.458,-0.302C0.458,-0.331 0.435,-0.354 0.406,-0.354C0.378,-0.354 0.354,-0.331 0.354,-0.302C0.354,-0.274 0.378,-0.25 0.406,-0.25Z" style="fill:rgb(255,0,255);fill-rule:nonzero;"/>
    </g>
    <g transform="matrix(186.664,-38.6454,35.258,205.339,1789.58,491.205)">
        <path d="M0.125,-0.148L0.125,-0.102L0.392,-0.102L0.392,0.021L0.441,0.021L0.441,-0.102L0.708,-0.102L0.708,-0.148L0.441,-0.148L0.441,-0.269L0.708,-0.269L0.708,-0.314L0.441,-0.314L0.441,-0.435L0.708,-0.435L0.708,-0.481L0.441,-0.481L0.441,-0.688L0.392,-0.688L0.392,-0.481L0.125,-0.481L0.125,-0.435L0.392,-0.435L0.392,-0.314L0.125,-0.314L0.125,-0.269L0.392,-0.269L0.392,-0.148L0.125,-0.148ZM0.562,-0.635C0.562,-0.606 0.586,-0.583 0.614,-0.583C0.643,-0.583 0.666,-0.606 0.666,-0.635C0.666,-0.663 0.643,-0.688 0.614,-0.688C0.586,-0.688 0.562,-0.663 0.562,-0.635ZM0.219,-0.583C0.247,-0.583 0.271,-0.606 0.271,-0.635C0.271,-0.663 0.247,-0.688 0.219,-0.688C0.19,-0.688 0.167,-0.663 0.167,-0.635C0.167,-0.606 0.19,-0.583 0.219,-0.583Z" style="fill:rgb(255,255,0);fill-rule:nonzero;"/>
    </g>
    <g transform="matrix(165.939,-53.3952,52.6057,168.684,1634.06,953.829)">
        <path d="M0.018,-0.051L0.065,-0.033C0.065,-0.034 0.105,-0.136 0.172,-0.248C0.242,-0.126 0.336,-0.017 0.519,-0.017C0.691,-0.017 0.817,-0.129 0.817,-0.304C0.817,-0.333 0.812,-0.364 0.803,-0.393C0.767,-0.513 0.672,-0.591 0.519,-0.591C0.37,-0.591 0.252,-0.457 0.176,-0.347C0.137,-0.423 0.103,-0.501 0.063,-0.578L0.019,-0.555C0.063,-0.47 0.1,-0.382 0.144,-0.299C0.065,-0.174 0.02,-0.056 0.018,-0.051ZM0.519,-0.541C0.666,-0.541 0.766,-0.45 0.766,-0.304C0.766,-0.159 0.665,-0.067 0.519,-0.067C0.358,-0.067 0.276,-0.16 0.202,-0.296C0.268,-0.397 0.386,-0.541 0.519,-0.541Z" style="fill:rgb(255,0,0);fill-rule:nonzero;"/>
    </g>
    <g transform="matrix(203.33,74.9383,-72.6033,195.992,1117.16,208.589)">
        <path d="M0.063,-0.314L0.063,-0.269L0.226,-0.269C0.229,-0.226 0.235,-0.185 0.245,-0.148L0.125,-0.148L0.125,-0.102L0.26,-0.102C0.286,-0.035 0.337,0.046 0.417,0.046C0.496,0.046 0.547,-0.035 0.573,-0.102L0.708,-0.102L0.708,-0.148L0.587,-0.148C0.597,-0.185 0.605,-0.226 0.607,-0.269L0.771,-0.269L0.771,-0.314L0.608,-0.314C0.608,-0.356 0.604,-0.397 0.597,-0.435L0.708,-0.435L0.708,-0.481L0.586,-0.481C0.563,-0.56 0.512,-0.671 0.417,-0.671C0.321,-0.671 0.27,-0.561 0.247,-0.481L0.125,-0.481L0.125,-0.435L0.236,-0.435C0.229,-0.397 0.225,-0.356 0.225,-0.314L0.063,-0.314ZM0.275,-0.314C0.275,-0.356 0.279,-0.397 0.287,-0.435L0.546,-0.435C0.554,-0.397 0.558,-0.356 0.558,-0.314L0.275,-0.314ZM0.276,-0.269L0.557,-0.269C0.554,-0.226 0.547,-0.185 0.536,-0.148L0.297,-0.148C0.286,-0.185 0.279,-0.226 0.276,-0.269ZM0.299,-0.481C0.313,-0.528 0.356,-0.621 0.417,-0.621C0.477,-0.621 0.519,-0.527 0.534,-0.481L0.299,-0.481ZM0.314,-0.102L0.519,-0.102C0.502,-0.064 0.465,-0.004 0.417,-0.004C0.369,-0.004 0.329,-0.063 0.314,-0.102ZM0.583,-0.677C0.583,-0.648 0.606,-0.625 0.635,-0.625C0.663,-0.625 0.688,-0.648 0.688,-0.677C0.688,-0.706 0.663,-0.729 0.635,-0.729C0.606,-0.729 0.583,-0.706 0.583,-0.677ZM0.146,-0.677C0.146,-0.648 0.17,-0.625 0.198,-0.625C0.227,-0.625 0.25,-0.648 0.25,-0.677C0.25,-0.706 0.227,-0.729 0.198,-0.729C0.17,-0.729 0.146,-0.706 0.146,-0.677Z" style="fill:rgb(255,255,0);fill-rule:nonzero;"/>
    </g>
    <path d="M187.758,2000L197.846,2000C199.483,1991.03 199.946,1981.31 198.884,1971.02L189.147,1972.02C190.147,1981.71 189.608,1991.15 187.758,2000ZM50.807,2000L60.866,2000C59.617,1995.35 58.716,1990.52 58.202,1985.54L48.465,1986.55C48.931,1991.06 49.717,1995.56 50.807,2000Z" style="fill:rgb(255,0,255);fill-rule:nonzero;"/>
    <path d="M456.828,2000L475.105,2000L481.387,1978.89L497.677,2000L533.854,2000L541.16,1982.66L558.309,2000L578.268,2000L534.047,1954.99L515.86,1998.51L473.36,1943.85L456.828,2000ZM441.82,2000L422.559,2000L408.703,1981.85L403.079,2000L384.915,2000L401.372,1946.78L441.82,2000ZM380.201,2000L360.222,2000L351.627,1990.39L346.878,2000L327.915,2000L346.6,1962.63L380.201,2000Z" style="fill:rgb(0,255,255);fill-rule:nonzero;"/>
    <path d="M961.611,2000L958.789,2000L960.325,1997.88L961.611,2000ZM916.122,2000L888.506,2000L903.808,1973.12L916.122,2000ZM851.093,2000L834.266,2000L832.162,1995.3L829.396,2000L809.261,2000L833.063,1959.48L851.093,2000ZM796.735,2000L779.803,2000L774.648,1990.53L766.829,2000L744.737,2000L776.116,1962.36L796.735,2000Z" style="fill:rgb(255,0,0);fill-rule:nonzero;"/>
    <path d="M1037.89,2000C1038.87,1991.72 1041.26,1983.78 1044.35,1976.54C1052.48,1957.97 1068.37,1938.8 1091.89,1925.33C1104.12,1918.33 1116.86,1913.67 1129.9,1911.48C1132.17,1911.14 1134.17,1912.16 1135.14,1914C1136.3,1916.22 1135.86,1919.11 1133.98,1920.66C1112.88,1939.7 1097.8,1971.12 1111.64,1997.5C1112.09,1998.36 1112.56,1999.19 1113.05,2000L1100.81,2000C1089.55,1975.29 1098.29,1948.05 1114.63,1926.23C1108.59,1928.24 1102.56,1931.21 1096.73,1934.56C1069.27,1950.28 1051.6,1975.77 1048.57,2000L1037.89,2000Z" style="fill:rgb(212,42,255);fill-rule:nonzero;"/>
    <path d="M1429.06,2000L1419.37,2000L1370.34,1923.12L1295.74,1980.76L1308,2000L1298.32,2000L1284.84,1978.87L1372.43,1911.2L1429.06,2000ZM1331.05,2000L1321.66,1985.27L1365.38,1951.49L1395.07,1998.04L1392.53,2000L1380.25,2000L1385.05,1996.29L1363.47,1962.45L1331.68,1987.01L1339.96,2000L1331.05,2000Z" style="fill:rgb(0,255,204);fill-rule:nonzero;"/>
    <path d="M1743.52,2000L1733.88,2000L1703.65,1941.35L1634.02,1974.61L1647.1,2000L1637.46,2000L1622.44,1970.86L1707.55,1930.2L1743.52,2000ZM1622.01,1959.55L1624.74,1951.75L1600.66,1943.94L1597.93,1951.74L1622.01,1959.55ZM1659.41,1930.73L1649.82,1912.11L1642.23,1915.73L1651.83,1934.35L1659.41,1930.73ZM1698.45,1923.04L1706.56,1899.86L1698.3,1897.3L1690.19,1920.48L1698.45,1923.04Z" style="fill:rgb(127,255,42);fill-rule:nonzero;"/>
    <path d="M1988.24,2000L1974.72,2000L1950.24,1965.67L1941.21,2000L1929.58,2000L1945.45,1940.28L1988.24,2000ZM1886.74,2000L1873.27,2000L1859.01,1979.99L1853.75,2000L1842.28,2000L1854.22,1954.61L1886.74,2000Z" style="fill:rgb(42,255,42);fill-rule:nonzero;"/>
    <path d="M2000,1814.1L2000,1803.88C1982.76,1812.27 1962.3,1812.45 1944.73,1800.97C1916.22,1782.33 1911.43,1743.14 1928.95,1714.75C1940.3,1696.35 1951.59,1684.37 1964.84,1676.56C1965.54,1676.13 1966.09,1675.59 1966.48,1674.96C1967.65,1673.06 1967.38,1669.99 1965.07,1668.48C1963.68,1667.57 1961.81,1667.46 1960.31,1668.48C1945.76,1677 1933.38,1690.05 1921.24,1709.71C1901.08,1742.39 1907.02,1787.44 1939.84,1808.89C1958.81,1821.29 1980.86,1822.03 2000,1814.1ZM2000,1778.14L2000,1764.5C1989.83,1778.78 1972.5,1783.95 1960.19,1775.91C1947.25,1767.44 1944.8,1747.59 1954.68,1731.57C1965.7,1713.71 1983.46,1703.64 2000,1704.07L2000,1694.54C1979.11,1694.14 1958.41,1708.01 1946.98,1726.54C1935.92,1744.46 1936.35,1771.45 1955.3,1783.84C1969.9,1793.38 1987.57,1789.08 2000,1778.14ZM2000,1742.41L2000,1731.17C1989.31,1726.08 1976.24,1730.28 1969.48,1741.24C1968.2,1743.3 1968.72,1746.31 1970.88,1747.73C1973.04,1749.13 1975.91,1748.34 1977.18,1746.28C1981.88,1738.66 1990.99,1736.16 1997.77,1740.6C1998.59,1741.13 1999.33,1741.74 2000,1742.41Z" style="fill:rgb(0,255,255);fill-rule:nonzero;"/>
    <path d="M1965.12,1584.89L1985.36,1536.42L1974.49,1531.41L1954.26,1579.88L1965.12,1584.89ZM1914.11,1467.71L1909.34,1479.13L1964.54,1504.59L1969.31,1493.17L1914.11,1467.71ZM2000,1470.33L2000,1485.1L1994.83,1482.71L2000,1470.33Z" style="fill:rgb(0,255,0);fill-rule:nonzero;"/>
    <path d="M2000,1347.41C1985.94,1350.6 1970.75,1348.74 1957.11,1340.97C1927.09,1323.87 1916.16,1284.87 1932.67,1253.75C1946.12,1228.39 1973.96,1216.16 2000,1221.92L2000,1230.84C1976.96,1224.84 1952,1235.38 1940.02,1257.94C1925.78,1284.79 1935.26,1318.59 1961.16,1333.35C1973.5,1340.38 1987.35,1341.78 2000,1338.43L2000,1347.41ZM2000,1313.16C1991.48,1317.34 1981.22,1317.37 1972.32,1312.3C1957.31,1303.75 1952.08,1285.07 1960.33,1269.52C1968.21,1254.67 1985.45,1249.03 2000,1256.23L2000,1266.33C1999.23,1265.74 1998.42,1265.2 1997.57,1264.72C1986.97,1258.68 1973.37,1262.65 1967.54,1273.63C1961.72,1284.61 1965.77,1298.64 1976.37,1304.67C1984.08,1309.07 1993.3,1308.12 2000,1303.05L2000,1313.16Z" style="fill:rgb(255,255,0);fill-rule:nonzero;"/>
    <path d="M1901.98,1167.77C1900.12,1175.16 1904.04,1183.43 1911.01,1185.85C1917.97,1188.28 1925.09,1183.87 1926.95,1176.47C1928.87,1168.82 1924.88,1160.82 1917.92,1158.39C1910.95,1155.96 1903.9,1160.11 1901.98,1167.77ZM2000,1045.68L1944.09,1116.67L1953.74,1126.07L1992.98,1075.98L2000,1124.41L2000,1045.68ZM1853.61,1091.17L1892.86,1041.09L1902.59,1108.24L1915.03,1106.55L1900.77,1009.66L1844.2,1081.86L1853.61,1091.17Z" style="fill:rgb(255,0,255);fill-rule:nonzero;"/>
    <path d="M2000,714.885C1987.37,718.672 1973.63,718.627 1960.45,713.88C1925.87,701.431 1907.86,661.839 1920.24,625.497C1932.07,590.785 1966.91,571.927 2000,580.783L2000,592.227C1971.41,582.986 1940.32,599.121 1930.12,629.054C1919.65,659.789 1934.74,692.968 1963.98,703.497C1976.12,707.866 1988.7,707.576 2000,703.56L2000,714.885ZM1953.46,573.574L1962.86,568.796L1949.66,539.799L1940.27,544.578L1953.46,573.574Z" style="fill:rgb(255,0,0);fill-rule:nonzero;"/>
    <path d="M2000,304.784L2000,290.155L1971.01,314.622L1946.68,231.673L1936.25,235.098L1965.4,334.015L2000,304.784Z" style="fill:rgb(255,255,0);fill-rule:nonzero;"/>
    <path d="M0,290.155L0,304.784L44.143,267.492L37.12,258.826L0,290.155Z" style="fill:rgb(255,255,0);fill-rule:nonzero;"/>
    <path d="M0,580.783C1.75,581.251 3.498,581.798 5.237,582.424C39.813,594.874 57.695,634.186 45.312,670.529C37.721,692.806 20.301,708.797 0,714.885L0,703.56C15.938,697.898 29.348,684.831 35.433,666.972C45.834,636.444 30.743,603.265 1.699,592.808C1.132,592.604 0.565,592.41 0,592.227L0,580.783ZM51.067,608.718L78.974,594.519L74.338,584.689L46.431,598.888L51.067,608.718ZM12.668,576.24L21.513,550.281L11.831,546.795L2.986,572.754L12.668,576.24Z" style="fill:rgb(255,0,0);fill-rule:nonzero;"/>
    <path d="M0,1221.92C5.754,1223.19 11.42,1225.34 16.824,1228.42C46.696,1245.44 57.465,1284.75 41.121,1315.56C32.156,1332.45 16.893,1343.57 0,1347.41L0,1338.43C13.898,1334.75 26.35,1325.33 33.763,1311.36C47.922,1284.67 38.678,1250.8 12.778,1236.05C8.655,1233.69 4.361,1231.97 0,1230.84L0,1221.92ZM0,1256.23C0.541,1256.5 1.079,1256.79 1.612,1257.09C16.328,1265.48 21.694,1284.62 13.602,1299.87C10.401,1305.91 5.576,1310.42 0,1313.16L0,1303.05C2.506,1301.15 4.658,1298.67 6.244,1295.68C11.6,1285.59 8.729,1272.99 0,1266.33L0,1256.23Z" style="fill:rgb(255,255,0);fill-rule:nonzero;"/>
    <path d="M0,1045.68L0,1124.41L2.715,1143.13L15.155,1141.44L0.887,1044.55L0,1045.68Z" style="fill:rgb(255,0,255);fill-rule:nonzero;"/>
    <path d="M0,1694.54L0,1704.07C6.663,1704.24 13.132,1706.12 18.886,1709.88C38.919,1722.98 42.726,1753.95 27.263,1779.01C20.483,1790 10.883,1798.58 0,1803.88L0,1814.1C13.983,1808.32 26.417,1797.91 34.968,1784.05C50.822,1758.36 51.055,1719.78 23.779,1701.95C16.175,1696.98 8.073,1694.7 0,1694.54ZM0,1731.17L0,1742.41C4.863,1747.31 5.659,1755.5 1.528,1762.19C1.04,1762.98 0.531,1763.75 0,1764.5L0,1778.14C3.577,1775 6.72,1771.3 9.233,1767.23C16.573,1755.33 13.605,1739.82 2.664,1732.67C1.797,1732.1 0.907,1731.6 0,1731.17Z" style="fill:rgb(0,255,255);fill-rule:nonzero;"/>
    <path d="M66.299,1551.53L71.066,1540.11L15.643,1514.55L10.875,1525.96L66.299,1551.53ZM0,1470.33L0,1485.1L5.691,1487.73L27.972,1434.37L17.109,1429.36L0,1470.33Z" style="fill:rgb(0,255,0);fill-rule:nonzero;"/>
    <path d="M1910.67,66.273C1911.8,72.245 1917.8,76.574 1924.14,75.578C1930.49,74.582 1934.55,68.673 1933.43,62.701C1932.26,56.515 1926.3,52.399 1919.95,53.396C1913.61,54.392 1909.51,60.088 1910.67,66.273ZM1853.73,0L1842.27,0L1834.94,27.872L1845.63,30.805L1853.73,0ZM1886.77,0L1873.3,0L1890.26,23.797L1899.48,17.738L1886.77,0ZM1941.2,0L1929.57,0L1925.95,13.582L1936.86,16.481L1941.2,0ZM1988.27,0L1974.74,0L1981.5,9.473L1990.71,3.414L1988.27,0Z" style="fill:rgb(42,255,42);fill-rule:nonzero;"/>
    <path d="M1429.08,0L1431.89,4.397L1344.3,72.062L1298.35,0L1308.03,0L1346.38,60.143L1420.99,2.503L1419.4,0L1429.08,0ZM1351.34,31.778L1331.08,0L1339.99,0L1353.26,20.813L1380.2,0L1392.48,0L1351.34,31.778Z" style="fill:rgb(0,255,204);fill-rule:nonzero;"/>
    <path d="M460.369,49.488L422.589,0L441.85,0L452.638,14.194L456.817,0L475.093,0L460.369,49.488ZM392.052,35.544L360.258,0L380.237,0L383.709,3.861L384.903,0L403.067,0L392.052,35.544ZM521.074,30.284L497.707,0L533.837,0L521.074,30.284ZM346.859,0L327.895,0L320.492,14.802L337.283,19.376L346.859,0ZM578.307,0L558.348,0L568.201,9.961L582.361,4.126L578.307,0Z" style="fill:rgb(0,255,255);fill-rule:nonzero;"/>
    <path d="M961.635,0L958.76,0L932.649,36.034L916.14,0L888.484,0L867.506,36.848L851.11,0L834.284,0L866.943,72.974L903.59,9.031L930.433,68.193L960.908,26.405L980.963,59.211L996.084,56.776L961.635,0ZM803.64,43.745L779.824,0L796.757,0L802.78,10.993L809.237,0L829.373,0L803.64,43.745ZM766.796,0L744.704,0L738.738,7.156L754.034,15.456L766.796,0Z" style="fill:rgb(255,0,0);fill-rule:nonzero;"/>
    <path d="M1743.54,0L1748.17,8.976L1663.06,49.626L1637.48,0L1647.12,0L1666.96,38.482L1736.59,5.222L1733.9,0L1743.54,0Z" style="fill:rgb(127,255,42);fill-rule:nonzero;"/>
    <path d="M1113.07,0C1127.6,23.9 1159.83,27.193 1185.65,19.135C1188.01,18.503 1190.39,19.301 1191.55,21.515C1192.52,23.36 1192.35,25.851 1190.86,27.667C1182.07,37.975 1171.47,46.686 1159.23,53.69C1121.78,75.134 1065.93,77.365 1044.26,36.042C1037.97,24.06 1036.52,11.697 1037.89,0L1048.57,0C1047.22,10.794 1048.78,21.335 1053.67,30.654C1069.54,60.909 1114.68,67.203 1154.4,44.466C1160.23,41.125 1165.78,37.231 1170.65,32.999C1143.79,36.383 1115,27.204 1102.23,2.852C1101.73,1.905 1101.26,0.954 1100.83,0L1113.07,0Z" style="fill:rgb(212,42,255);fill-rule:nonzero;"/>
    <path d="M197.839,0L187.749,0C181.393,30.338 159.649,53.752 131.815,56.625C100.036,59.906 70.403,35.37 60.877,0L50.816,0C60.099,37.755 91.249,70.854 132.841,66.56C156.486,64.119 173.118,50.152 183.605,35.012C190.217,25.397 195.364,13.538 197.839,0Z" style="fill:rgb(255,0,255);fill-rule:nonzero;"/>
</svg>